<?xml version="1.0" encoding="UTF-8" standalone="no"?>
<!DOCTYPE svg PUBLIC "-//W3C//DTD SVG 1.1//EN"
 "http://www.w3.org/Graphics/SVG/1.1/DTD/svg11.dtd">
<!-- Generated by graphviz version 2.40.1 (20161225.0304)
 -->
<!-- Title: ppht/accumulator.hpp Pages: 1 -->
<svg width="1225pt" height="137pt"
 viewBox="0.00 0.00 1224.76 137.00" xmlns="http://www.w3.org/2000/svg" xmlns:xlink="http://www.w3.org/1999/xlink">
<g id="graph0" class="graph" transform="scale(1 1) rotate(0) translate(4 133)">
<title>ppht/accumulator.hpp</title>
<polygon fill="#ffffff" stroke="transparent" points="-4,4 -4,-133 1220.7559,-133 1220.7559,4 -4,4"/>
<!-- Node0 -->
<g id="node1" class="node">
<title>Node0</title>
<polygon fill="#bfbfbf" stroke="#000000" points="579.3276,-110.5 579.3276,-128.5 690.9526,-128.5 690.9526,-110.5 579.3276,-110.5"/>
<text text-anchor="middle" x="635.1401" y="-116.5" font-family="Helvetica,sans-Serif" font-size="10.00" fill="#000000">ppht/accumulator.hpp</text>
</g>
<!-- Node1 -->
<g id="node2" class="node">
<title>Node1</title>
<g id="a_node2"><a xlink:href="parameters_8hpp.html" target="_top" xlink:title="ppht/parameters.hpp">
<polygon fill="#ffffff" stroke="#000000" points="0,-55.5 0,-73.5 108.2803,-73.5 108.2803,-55.5 0,-55.5"/>
<text text-anchor="middle" x="54.1401" y="-61.5" font-family="Helvetica,sans-Serif" font-size="10.00" fill="#000000">ppht/parameters.hpp</text>
</a>
</g>
</g>
<!-- Node0&#45;&gt;Node1 -->
<g id="edge1" class="edge">
<title>Node0&#45;&gt;Node1</title>
<path fill="none" stroke="#191970" d="M579.2525,-115.4693C484.8922,-108.4566 288.0404,-92.9336 122.1401,-74 120.8744,-73.8555 119.5958,-73.7066 118.3077,-73.5538"/>
<polygon fill="#191970" stroke="#191970" points="118.6532,-70.0699 108.2994,-72.3168 117.7946,-77.0171 118.6532,-70.0699"/>
</g>
<!-- Node2 -->
<g id="node3" class="node">
<title>Node2</title>
<polygon fill="#ffffff" stroke="#bfbfbf" points="113.6895,-.5 113.6895,-18.5 158.5908,-18.5 158.5908,-.5 113.6895,-.5"/>
<text text-anchor="middle" x="136.1401" y="-6.5" font-family="Helvetica,sans-Serif" font-size="10.00" fill="#000000">cstdint</text>
</g>
<!-- Node0&#45;&gt;Node2 -->
<g id="edge18" class="edge">
<title>Node0&#45;&gt;Node2</title>
<path fill="none" stroke="#191970" d="M579.1269,-117.6771C459.4959,-113.29 187.2735,-100.4893 155.1401,-74 141.9328,-63.1124 137.6216,-43.5376 136.3487,-28.7985"/>
<polygon fill="#191970" stroke="#191970" points="139.8394,-28.5173 135.8704,-18.694 132.8472,-28.8483 139.8394,-28.5173"/>
</g>
<!-- Node3 -->
<g id="node4" class="node">
<title>Node3</title>
<g id="a_node4"><a xlink:href="raster_8hpp.html" target="_top" xlink:title="ppht/raster.hpp">
<polygon fill="#ffffff" stroke="#000000" points="163.7808,-55.5 163.7808,-73.5 246.4995,-73.5 246.4995,-55.5 163.7808,-55.5"/>
<text text-anchor="middle" x="205.1401" y="-61.5" font-family="Helvetica,sans-Serif" font-size="10.00" fill="#000000">ppht/raster.hpp</text>
</a>
</g>
</g>
<!-- Node0&#45;&gt;Node3 -->
<g id="edge3" class="edge">
<title>Node0&#45;&gt;Node3</title>
<path fill="none" stroke="#191970" d="M579.1137,-113.5918C505.7072,-105.6472 373.0399,-90.589 260.1401,-74 259.0376,-73.838 257.9232,-73.6714 256.8001,-73.5009"/>
<polygon fill="#191970" stroke="#191970" points="256.9717,-69.9847 246.5481,-71.8819 255.8797,-76.899 256.9717,-69.9847"/>
</g>
<!-- Node4 -->
<g id="node5" class="node">
<title>Node4</title>
<polygon fill="#ffffff" stroke="#bfbfbf" points="218.0835,-.5 218.0835,-18.5 270.1968,-18.5 270.1968,-.5 218.0835,-.5"/>
<text text-anchor="middle" x="244.1401" y="-6.5" font-family="Helvetica,sans-Serif" font-size="10.00" fill="#000000">memory</text>
</g>
<!-- Node0&#45;&gt;Node4 -->
<g id="edge21" class="edge">
<title>Node0&#45;&gt;Node4</title>
<path fill="none" stroke="#191970" d="M579.0323,-115.5042C500.0938,-109.2109 360.7832,-95.4518 315.1401,-74 291.958,-63.1046 271.0021,-42.0175 257.966,-26.9188"/>
<polygon fill="#191970" stroke="#191970" points="260.3345,-24.2931 251.2487,-18.8433 254.9529,-28.7695 260.3345,-24.2931"/>
</g>
<!-- Node5 -->
<g id="node6" class="node">
<title>Node5</title>
<g id="a_node6"><a xlink:href="trig_8hpp.html" target="_top" xlink:title="ppht/trig.hpp">
<polygon fill="#ffffff" stroke="#000000" points="340.3423,-55.5 340.3423,-73.5 411.938,-73.5 411.938,-55.5 340.3423,-55.5"/>
<text text-anchor="middle" x="376.1401" y="-61.5" font-family="Helvetica,sans-Serif" font-size="10.00" fill="#000000">ppht/trig.hpp</text>
</a>
</g>
</g>
<!-- Node0&#45;&gt;Node5 -->
<g id="edge5" class="edge">
<title>Node0&#45;&gt;Node5</title>
<path fill="none" stroke="#191970" d="M592.6616,-110.4795C545.6343,-100.493 470.1107,-84.4551 421.831,-74.2027"/>
<polygon fill="#191970" stroke="#191970" points="422.4712,-70.7607 411.9622,-72.107 421.017,-77.608 422.4712,-70.7607"/>
</g>
<!-- Node6 -->
<g id="node7" class="node">
<title>Node6</title>
<polygon fill="#ffffff" stroke="#bfbfbf" points="288.0244,-.5 288.0244,-18.5 336.2559,-18.5 336.2559,-.5 288.0244,-.5"/>
<text text-anchor="middle" x="312.1401" y="-6.5" font-family="Helvetica,sans-Serif" font-size="10.00" fill="#000000">cassert</text>
</g>
<!-- Node0&#45;&gt;Node6 -->
<g id="edge15" class="edge">
<title>Node0&#45;&gt;Node6</title>
<path fill="none" stroke="#191970" d="M579.2771,-118.1528C501.8111,-115.141 367.2101,-105.4097 331.1401,-74 318.2318,-62.7594 313.8772,-43.236 312.5125,-28.6052"/>
<polygon fill="#191970" stroke="#191970" points="316.0055,-28.3807 311.9595,-18.5889 309.0161,-28.7666 316.0055,-28.3807"/>
</g>
<!-- Node7 -->
<g id="node8" class="node">
<title>Node7</title>
<polygon fill="#ffffff" stroke="#bfbfbf" points="418.5244,-.5 418.5244,-18.5 461.7559,-18.5 461.7559,-.5 418.5244,-.5"/>
<text text-anchor="middle" x="440.1401" y="-6.5" font-family="Helvetica,sans-Serif" font-size="10.00" fill="#000000">cmath</text>
</g>
<!-- Node0&#45;&gt;Node7 -->
<g id="edge16" class="edge">
<title>Node0&#45;&gt;Node7</title>
<path fill="none" stroke="#191970" d="M579.2481,-111.1756C534.4241,-103.4181 476.2687,-90.5644 459.1401,-74 447.0891,-62.3459 442.5795,-43.4694 440.9427,-29.1412"/>
<polygon fill="#191970" stroke="#191970" points="444.4082,-28.5546 440.1567,-18.8502 437.4285,-29.0878 444.4082,-28.5546"/>
</g>
<!-- Node9 -->
<g id="node10" class="node">
<title>Node9</title>
<polygon fill="#ffffff" stroke="#bfbfbf" points="489.7485,-.5 489.7485,-18.5 528.5317,-18.5 528.5317,-.5 489.7485,-.5"/>
<text text-anchor="middle" x="509.1401" y="-6.5" font-family="Helvetica,sans-Serif" font-size="10.00" fill="#000000">utility</text>
</g>
<!-- Node0&#45;&gt;Node9 -->
<g id="edge27" class="edge">
<title>Node0&#45;&gt;Node9</title>
<path fill="none" stroke="#191970" d="M624.829,-110.4982C603.5091,-91.8856 554.3292,-48.9508 527.4673,-25.4999"/>
<polygon fill="#191970" stroke="#191970" points="529.4287,-22.5661 519.5937,-18.6261 524.8251,-27.8394 529.4287,-22.5661"/>
</g>
<!-- Node10 -->
<g id="node11" class="node">
<title>Node10</title>
<g id="a_node11"><a xlink:href="types_8hpp.html" target="_top" xlink:title="ppht/types.hpp">
<polygon fill="#ffffff" stroke="#000000" points="468.3374,-55.5 468.3374,-73.5 549.9429,-73.5 549.9429,-55.5 468.3374,-55.5"/>
<text text-anchor="middle" x="509.1401" y="-61.5" font-family="Helvetica,sans-Serif" font-size="10.00" fill="#000000">ppht/types.hpp</text>
</a>
</g>
</g>
<!-- Node0&#45;&gt;Node10 -->
<g id="edge12" class="edge">
<title>Node0&#45;&gt;Node10</title>
<path fill="none" stroke="#191970" d="M614.3338,-110.4179C593.9062,-101.5011 562.5253,-87.803 539.3509,-77.6873"/>
<polygon fill="#191970" stroke="#191970" points="540.5425,-74.3885 529.9774,-73.5956 537.7421,-80.804 540.5425,-74.3885"/>
</g>
<!-- Node11 -->
<g id="node12" class="node">
<title>Node11</title>
<polygon fill="#ffffff" stroke="#bfbfbf" points="606.5762,-55.5 606.5762,-73.5 663.7041,-73.5 663.7041,-55.5 606.5762,-55.5"/>
<text text-anchor="middle" x="635.1401" y="-61.5" font-family="Helvetica,sans-Serif" font-size="10.00" fill="#000000">algorithm</text>
</g>
<!-- Node0&#45;&gt;Node11 -->
<g id="edge14" class="edge">
<title>Node0&#45;&gt;Node11</title>
<path fill="none" stroke="#191970" d="M635.1401,-110.4179C635.1401,-103.2164 635.1401,-92.8962 635.1401,-83.8632"/>
<polygon fill="#191970" stroke="#191970" points="638.6402,-83.7794 635.1401,-73.7795 631.6402,-83.7795 638.6402,-83.7794"/>
</g>
<!-- Node12 -->
<g id="node13" class="node">
<title>Node12</title>
<polygon fill="#ffffff" stroke="#bfbfbf" points="682.0195,-55.5 682.0195,-73.5 730.2607,-73.5 730.2607,-55.5 682.0195,-55.5"/>
<text text-anchor="middle" x="706.1401" y="-61.5" font-family="Helvetica,sans-Serif" font-size="10.00" fill="#000000">cstddef</text>
</g>
<!-- Node0&#45;&gt;Node12 -->
<g id="edge17" class="edge">
<title>Node0&#45;&gt;Node12</title>
<path fill="none" stroke="#191970" d="M646.8643,-110.4179C657.4889,-102.1876 673.3718,-89.8839 686.0232,-80.0836"/>
<polygon fill="#191970" stroke="#191970" points="688.3991,-82.6704 694.1612,-73.7795 684.1123,-77.1365 688.3991,-82.6704"/>
</g>
<!-- Node13 -->
<g id="node14" class="node">
<title>Node13</title>
<polygon fill="#ffffff" stroke="#bfbfbf" points="747.9678,-55.5 747.9678,-73.5 792.3125,-73.5 792.3125,-55.5 747.9678,-55.5"/>
<text text-anchor="middle" x="770.1401" y="-61.5" font-family="Helvetica,sans-Serif" font-size="10.00" fill="#000000">cstdlib</text>
</g>
<!-- Node0&#45;&gt;Node13 -->
<g id="edge19" class="edge">
<title>Node0&#45;&gt;Node13</title>
<path fill="none" stroke="#191970" d="M657.4326,-110.4179C679.5147,-101.4215 713.5431,-87.5581 738.4344,-77.4172"/>
<polygon fill="#191970" stroke="#191970" points="739.8741,-80.61 747.8145,-73.5956 737.233,-74.1273 739.8741,-80.61"/>
</g>
<!-- Node14 -->
<g id="node15" class="node">
<title>Node14</title>
<polygon fill="#ffffff" stroke="#bfbfbf" points="810.7534,-55.5 810.7534,-73.5 849.5269,-73.5 849.5269,-55.5 810.7534,-55.5"/>
<text text-anchor="middle" x="830.1401" y="-61.5" font-family="Helvetica,sans-Serif" font-size="10.00" fill="#000000">limits</text>
</g>
<!-- Node0&#45;&gt;Node14 -->
<g id="edge20" class="edge">
<title>Node0&#45;&gt;Node14</title>
<path fill="none" stroke="#191970" d="M669.9368,-110.4938C701.5831,-102.1854 749.7862,-89.2387 800.6599,-74.0364"/>
<polygon fill="#191970" stroke="#191970" points="801.9573,-77.3012 810.5258,-71.0696 799.9415,-70.5977 801.9573,-77.3012"/>
</g>
<!-- Node15 -->
<g id="node16" class="node">
<title>Node15</title>
<polygon fill="#ffffff" stroke="#bfbfbf" points="867.187,-55.5 867.187,-73.5 917.0933,-73.5 917.0933,-55.5 867.187,-55.5"/>
<text text-anchor="middle" x="892.1401" y="-61.5" font-family="Helvetica,sans-Serif" font-size="10.00" fill="#000000">random</text>
</g>
<!-- Node0&#45;&gt;Node15 -->
<g id="edge22" class="edge">
<title>Node0&#45;&gt;Node15</title>
<path fill="none" stroke="#191970" d="M684.5228,-110.4698C727.6458,-102.349 792.1213,-89.6421 856.9565,-74.1618"/>
<polygon fill="#191970" stroke="#191970" points="858.0394,-77.5011 866.9414,-71.7561 856.3998,-70.6959 858.0394,-77.5011"/>
</g>
<!-- Node16 -->
<g id="node17" class="node">
<title>Node16</title>
<polygon fill="#ffffff" stroke="#bfbfbf" points="935.4702,-55.5 935.4702,-73.5 964.8101,-73.5 964.8101,-55.5 935.4702,-55.5"/>
<text text-anchor="middle" x="950.1401" y="-61.5" font-family="Helvetica,sans-Serif" font-size="10.00" fill="#000000">set</text>
</g>
<!-- Node0&#45;&gt;Node16 -->
<g id="edge23" class="edge">
<title>Node0&#45;&gt;Node16</title>
<path fill="none" stroke="#191970" d="M691.1558,-114.4666C748.1877,-108.5125 839.1047,-96.7349 925.6254,-73.6014"/>
<polygon fill="#191970" stroke="#191970" points="926.6094,-76.961 935.3352,-70.9516 924.7665,-70.2079 926.6094,-76.961"/>
</g>
<!-- Node17 -->
<g id="node18" class="node">
<title>Node17</title>
<polygon fill="#ffffff" stroke="#bfbfbf" points="982.7388,-55.5 982.7388,-73.5 1041.5415,-73.5 1041.5415,-55.5 982.7388,-55.5"/>
<text text-anchor="middle" x="1012.1401" y="-61.5" font-family="Helvetica,sans-Serif" font-size="10.00" fill="#000000">stdexcept</text>
</g>
<!-- Node0&#45;&gt;Node17 -->
<g id="edge24" class="edge">
<title>Node0&#45;&gt;Node17</title>
<path fill="none" stroke="#191970" d="M691.2366,-113.91C756.6123,-106.9633 868.0467,-93.7866 972.2767,-74.1996"/>
<polygon fill="#191970" stroke="#191970" points="973.1702,-77.5925 982.3392,-72.2841 971.8611,-70.716 973.1702,-77.5925"/>
</g>
<!-- Node18 -->
<g id="node19" class="node">
<title>Node18</title>
<polygon fill="#ffffff" stroke="#bfbfbf" points="1059.9136,-55.5 1059.9136,-73.5 1100.3667,-73.5 1100.3667,-55.5 1059.9136,-55.5"/>
<text text-anchor="middle" x="1080.1401" y="-61.5" font-family="Helvetica,sans-Serif" font-size="10.00" fill="#000000">string</text>
</g>
<!-- Node0&#45;&gt;Node18 -->
<g id="edge25" class="edge">
<title>Node0&#45;&gt;Node18</title>
<path fill="none" stroke="#191970" d="M691.0713,-116.8775C769.345,-112.4363 915.99,-101.3078 1049.6196,-73.6887"/>
<polygon fill="#191970" stroke="#191970" points="1050.5607,-77.0675 1059.6262,-71.5841 1049.1199,-70.2173 1050.5607,-77.0675"/>
</g>
<!-- Node19 -->
<g id="node20" class="node">
<title>Node19</title>
<polygon fill="#ffffff" stroke="#bfbfbf" points="1118.2979,-55.5 1118.2979,-73.5 1155.9824,-73.5 1155.9824,-55.5 1118.2979,-55.5"/>
<text text-anchor="middle" x="1137.1401" y="-61.5" font-family="Helvetica,sans-Serif" font-size="10.00" fill="#000000">tuple</text>
</g>
<!-- Node0&#45;&gt;Node19 -->
<g id="edge26" class="edge">
<title>Node0&#45;&gt;Node19</title>
<path fill="none" stroke="#191970" d="M691.2386,-118.3013C778.6922,-115.52 952.7296,-106.3243 1107.8367,-73.8123"/>
<polygon fill="#191970" stroke="#191970" points="1108.9762,-77.148 1118.0248,-71.6369 1107.5144,-70.3023 1108.9762,-77.148"/>
</g>
<!-- Node20 -->
<g id="node21" class="node">
<title>Node20</title>
<polygon fill="#ffffff" stroke="#bfbfbf" points="1173.5244,-55.5 1173.5244,-73.5 1216.7559,-73.5 1216.7559,-55.5 1173.5244,-55.5"/>
<text text-anchor="middle" x="1195.1401" y="-61.5" font-family="Helvetica,sans-Serif" font-size="10.00" fill="#000000">vector</text>
</g>
<!-- Node0&#45;&gt;Node20 -->
<g id="edge28" class="edge">
<title>Node0&#45;&gt;Node20</title>
<path fill="none" stroke="#191970" d="M691.0624,-116.2692C804.3607,-109.475 1058.4964,-92.9112 1163.3622,-73.9247"/>
<polygon fill="#191970" stroke="#191970" points="1164.1654,-77.3346 1173.3309,-72.0202 1162.8517,-70.459 1164.1654,-77.3346"/>
</g>
<!-- Node1&#45;&gt;Node2 -->
<g id="edge2" class="edge">
<title>Node1&#45;&gt;Node2</title>
<path fill="none" stroke="#191970" d="M67.6808,-55.4179C80.2627,-46.9788 99.2297,-34.257 114.0112,-24.3426"/>
<polygon fill="#191970" stroke="#191970" points="116.2241,-27.0727 122.5794,-18.5956 112.3248,-21.2593 116.2241,-27.0727"/>
</g>
<!-- Node3&#45;&gt;Node4 -->
<g id="edge4" class="edge">
<title>Node3&#45;&gt;Node4</title>
<path fill="none" stroke="#191970" d="M211.5802,-55.4179C217.0234,-47.7415 224.9793,-36.5217 231.664,-27.0945"/>
<polygon fill="#191970" stroke="#191970" points="234.6309,-28.9613 237.5602,-18.7795 228.9208,-24.9123 234.6309,-28.9613"/>
</g>
<!-- Node5&#45;&gt;Node2 -->
<g id="edge8" class="edge">
<title>Node5&#45;&gt;Node2</title>
<path fill="none" stroke="#191970" d="M340.2097,-56.2659C293.6245,-45.5902 213.0693,-27.1296 168.3706,-16.8861"/>
<polygon fill="#191970" stroke="#191970" points="169.1401,-13.4718 158.6109,-14.6495 167.5764,-20.295 169.1401,-13.4718"/>
</g>
<!-- Node5&#45;&gt;Node4 -->
<g id="edge10" class="edge">
<title>Node5&#45;&gt;Node4</title>
<path fill="none" stroke="#191970" d="M354.343,-55.4179C332.8472,-46.4613 299.7737,-32.6806 275.4649,-22.552"/>
<polygon fill="#191970" stroke="#191970" points="276.5466,-19.2111 265.9696,-18.5956 273.8542,-25.6726 276.5466,-19.2111"/>
</g>
<!-- Node5&#45;&gt;Node6 -->
<g id="edge6" class="edge">
<title>Node5&#45;&gt;Node6</title>
<path fill="none" stroke="#191970" d="M365.5718,-55.4179C356.0869,-47.2667 341.9527,-35.1201 330.6035,-25.3669"/>
<polygon fill="#191970" stroke="#191970" points="332.8035,-22.6427 322.938,-18.7795 328.2411,-27.9516 332.8035,-22.6427"/>
</g>
<!-- Node5&#45;&gt;Node7 -->
<g id="edge7" class="edge">
<title>Node5&#45;&gt;Node7</title>
<path fill="none" stroke="#191970" d="M386.7084,-55.4179C396.1934,-47.2667 410.3276,-35.1201 421.6768,-25.3669"/>
<polygon fill="#191970" stroke="#191970" points="424.0392,-27.9516 429.3422,-18.7795 419.4768,-22.6427 424.0392,-27.9516"/>
</g>
<!-- Node8 -->
<g id="node9" class="node">
<title>Node8</title>
<polygon fill="#ffffff" stroke="#bfbfbf" points="353.8545,-.5 353.8545,-18.5 400.4258,-18.5 400.4258,-.5 353.8545,-.5"/>
<text text-anchor="middle" x="377.1401" y="-6.5" font-family="Helvetica,sans-Serif" font-size="10.00" fill="#000000">math.h</text>
</g>
<!-- Node5&#45;&gt;Node8 -->
<g id="edge9" class="edge">
<title>Node5&#45;&gt;Node8</title>
<path fill="none" stroke="#191970" d="M376.3053,-55.4179C376.4362,-48.2164 376.6238,-37.8962 376.7881,-28.8632"/>
<polygon fill="#191970" stroke="#191970" points="380.289,-28.8415 376.9714,-18.7795 373.2901,-28.7141 380.289,-28.8415"/>
</g>
<!-- Node5&#45;&gt;Node9 -->
<g id="edge11" class="edge">
<title>Node5&#45;&gt;Node9</title>
<path fill="none" stroke="#191970" d="M398.1024,-55.4179C420.5392,-46.1395 455.4947,-31.6842 480.1828,-21.4748"/>
<polygon fill="#191970" stroke="#191970" points="481.8395,-24.5773 489.743,-17.5214 479.1644,-18.1086 481.8395,-24.5773"/>
</g>
<!-- Node10&#45;&gt;Node9 -->
<g id="edge13" class="edge">
<title>Node10&#45;&gt;Node9</title>
<path fill="none" stroke="#191970" d="M509.1401,-55.4179C509.1401,-48.2164 509.1401,-37.8962 509.1401,-28.8632"/>
<polygon fill="#191970" stroke="#191970" points="512.6402,-28.7794 509.1401,-18.7795 505.6402,-28.7795 512.6402,-28.7794"/>
</g>
</g>
</svg>
