<?xml version="1.0" encoding="UTF-8" standalone="no"?>
<!DOCTYPE svg PUBLIC "-//W3C//DTD SVG 1.1//EN"
 "http://www.w3.org/Graphics/SVG/1.1/DTD/svg11.dtd">
<!-- Generated by graphviz version 2.40.1 (20161225.0304)
 -->
<!-- Title: ppht/channel.hpp Pages: 1 -->
<svg width="288pt" height="137pt"
 viewBox="0.00 0.00 287.86 137.00" xmlns="http://www.w3.org/2000/svg" xmlns:xlink="http://www.w3.org/1999/xlink">
<g id="graph0" class="graph" transform="scale(1 1) rotate(0) translate(4 133)">
<title>ppht/channel.hpp</title>
<polygon fill="#ffffff" stroke="transparent" points="-4,4 -4,-133 283.8594,-133 283.8594,4 -4,4"/>
<!-- Node0 -->
<g id="node1" class="node">
<title>Node0</title>
<polygon fill="#bfbfbf" stroke="#000000" points="107.436,-110.5 107.436,-128.5 200.1694,-128.5 200.1694,-110.5 107.436,-110.5"/>
<text text-anchor="middle" x="153.8027" y="-116.5" font-family="Helvetica,sans-Serif" font-size="10.00" fill="#000000">ppht/channel.hpp</text>
</g>
<!-- Node1 -->
<g id="node2" class="node">
<title>Node1</title>
<g id="a_node2"><a xlink:href="types_8hpp.html" target="_top" xlink:title="ppht/types.hpp">
<polygon fill="#ffffff" stroke="#000000" points="0,-55.5 0,-73.5 81.6055,-73.5 81.6055,-55.5 0,-55.5"/>
<text text-anchor="middle" x="40.8027" y="-61.5" font-family="Helvetica,sans-Serif" font-size="10.00" fill="#000000">ppht/types.hpp</text>
</a>
</g>
</g>
<!-- Node0&#45;&gt;Node1 -->
<g id="edge1" class="edge">
<title>Node0&#45;&gt;Node1</title>
<path fill="none" stroke="#191970" d="M135.1431,-110.4179C117.0685,-101.6205 89.432,-88.1691 68.7355,-78.0956"/>
<polygon fill="#191970" stroke="#191970" points="70.0134,-74.825 59.4901,-73.5956 66.9499,-81.1191 70.0134,-74.825"/>
</g>
<!-- Node3 -->
<g id="node4" class="node">
<title>Node3</title>
<polygon fill="#ffffff" stroke="#bfbfbf" points="99.6304,-55.5 99.6304,-73.5 143.9751,-73.5 143.9751,-55.5 99.6304,-55.5"/>
<text text-anchor="middle" x="121.8027" y="-61.5" font-family="Helvetica,sans-Serif" font-size="10.00" fill="#000000">cstdlib</text>
</g>
<!-- Node0&#45;&gt;Node3 -->
<g id="edge3" class="edge">
<title>Node0&#45;&gt;Node3</title>
<path fill="none" stroke="#191970" d="M148.5186,-110.4179C144.1444,-102.8998 137.7928,-91.9829 132.3801,-82.6799"/>
<polygon fill="#191970" stroke="#191970" points="135.2559,-80.6628 127.2017,-73.7795 129.2055,-84.1831 135.2559,-80.6628"/>
</g>
<!-- Node4 -->
<g id="node5" class="node">
<title>Node4</title>
<polygon fill="#ffffff" stroke="#bfbfbf" points="162.2412,-55.5 162.2412,-73.5 209.3643,-73.5 209.3643,-55.5 162.2412,-55.5"/>
<text text-anchor="middle" x="185.8027" y="-61.5" font-family="Helvetica,sans-Serif" font-size="10.00" fill="#000000">iterator</text>
</g>
<!-- Node0&#45;&gt;Node4 -->
<g id="edge4" class="edge">
<title>Node0&#45;&gt;Node4</title>
<path fill="none" stroke="#191970" d="M159.0869,-110.4179C163.461,-102.8998 169.8127,-91.9829 175.2254,-82.6799"/>
<polygon fill="#191970" stroke="#191970" points="178.4,-84.1831 180.4038,-73.7795 172.3496,-80.6628 178.4,-84.1831"/>
</g>
<!-- Node5 -->
<g id="node6" class="node">
<title>Node5</title>
<polygon fill="#ffffff" stroke="#bfbfbf" points="227.7461,-55.5 227.7461,-73.5 279.8594,-73.5 279.8594,-55.5 227.7461,-55.5"/>
<text text-anchor="middle" x="253.8027" y="-61.5" font-family="Helvetica,sans-Serif" font-size="10.00" fill="#000000">memory</text>
</g>
<!-- Node0&#45;&gt;Node5 -->
<g id="edge5" class="edge">
<title>Node0&#45;&gt;Node5</title>
<path fill="none" stroke="#191970" d="M170.3157,-110.4179C186.0938,-101.7399 210.1056,-88.5334 228.3342,-78.5077"/>
<polygon fill="#191970" stroke="#191970" points="230.1898,-81.4816 237.2652,-73.5956 226.8163,-75.3481 230.1898,-81.4816"/>
</g>
<!-- Node2 -->
<g id="node3" class="node">
<title>Node2</title>
<polygon fill="#ffffff" stroke="#bfbfbf" points="21.4111,-.5 21.4111,-18.5 60.1943,-18.5 60.1943,-.5 21.4111,-.5"/>
<text text-anchor="middle" x="40.8027" y="-6.5" font-family="Helvetica,sans-Serif" font-size="10.00" fill="#000000">utility</text>
</g>
<!-- Node1&#45;&gt;Node2 -->
<g id="edge2" class="edge">
<title>Node1&#45;&gt;Node2</title>
<path fill="none" stroke="#191970" d="M40.8027,-55.4179C40.8027,-48.2164 40.8027,-37.8962 40.8027,-28.8632"/>
<polygon fill="#191970" stroke="#191970" points="44.3028,-28.7794 40.8027,-18.7795 37.3028,-28.7795 44.3028,-28.7794"/>
</g>
</g>
</svg>
