<?xml version="1.0" encoding="UTF-8" standalone="no"?>
<!DOCTYPE svg PUBLIC "-//W3C//DTD SVG 1.1//EN"
 "http://www.w3.org/Graphics/SVG/1.1/DTD/svg11.dtd">
<!-- Generated by graphviz version 2.40.1 (20161225.0304)
 -->
<!-- Title: ppht/point_set.hpp Pages: 1 -->
<svg width="136pt" height="137pt"
 viewBox="0.00 0.00 136.47 137.00" xmlns="http://www.w3.org/2000/svg" xmlns:xlink="http://www.w3.org/1999/xlink">
<g id="graph0" class="graph" transform="scale(1 1) rotate(0) translate(4 133)">
<title>ppht/point_set.hpp</title>
<polygon fill="#ffffff" stroke="transparent" points="-4,4 -4,-133 132.4727,-133 132.4727,4 -4,4"/>
<!-- Node0 -->
<g id="node1" class="node">
<title>Node0</title>
<polygon fill="#bfbfbf" stroke="#000000" points="27.6577,-110.5 27.6577,-128.5 125.9478,-128.5 125.9478,-110.5 27.6577,-110.5"/>
<text text-anchor="middle" x="76.8027" y="-116.5" font-family="Helvetica,sans-Serif" font-size="10.00" fill="#000000">ppht/point_set.hpp</text>
</g>
<!-- Node1 -->
<g id="node2" class="node">
<title>Node1</title>
<g id="a_node2"><a xlink:href="types_8hpp.html" target="_top" xlink:title="ppht/types.hpp">
<polygon fill="#ffffff" stroke="#000000" points="0,-55.5 0,-73.5 81.6055,-73.5 81.6055,-55.5 0,-55.5"/>
<text text-anchor="middle" x="40.8027" y="-61.5" font-family="Helvetica,sans-Serif" font-size="10.00" fill="#000000">ppht/types.hpp</text>
</a>
</g>
</g>
<!-- Node0&#45;&gt;Node1 -->
<g id="edge1" class="edge">
<title>Node0&#45;&gt;Node1</title>
<path fill="none" stroke="#191970" d="M70.8581,-110.4179C65.8854,-102.8207 58.6408,-91.7527 52.5103,-82.3866"/>
<polygon fill="#191970" stroke="#191970" points="55.2817,-80.2297 46.8766,-73.7795 49.4247,-84.0633 55.2817,-80.2297"/>
</g>
<!-- Node3 -->
<g id="node4" class="node">
<title>Node3</title>
<polygon fill="#ffffff" stroke="#bfbfbf" points="99.1328,-55.5 99.1328,-73.5 128.4727,-73.5 128.4727,-55.5 99.1328,-55.5"/>
<text text-anchor="middle" x="113.8027" y="-61.5" font-family="Helvetica,sans-Serif" font-size="10.00" fill="#000000">set</text>
</g>
<!-- Node0&#45;&gt;Node3 -->
<g id="edge3" class="edge">
<title>Node0&#45;&gt;Node3</title>
<path fill="none" stroke="#191970" d="M82.9125,-110.4179C88.0766,-102.7415 95.6245,-91.5217 101.9664,-82.0945"/>
<polygon fill="#191970" stroke="#191970" points="104.8824,-84.0303 107.5602,-73.7795 99.0743,-80.1231 104.8824,-84.0303"/>
</g>
<!-- Node2 -->
<g id="node3" class="node">
<title>Node2</title>
<polygon fill="#ffffff" stroke="#bfbfbf" points="21.4111,-.5 21.4111,-18.5 60.1943,-18.5 60.1943,-.5 21.4111,-.5"/>
<text text-anchor="middle" x="40.8027" y="-6.5" font-family="Helvetica,sans-Serif" font-size="10.00" fill="#000000">utility</text>
</g>
<!-- Node1&#45;&gt;Node2 -->
<g id="edge2" class="edge">
<title>Node1&#45;&gt;Node2</title>
<path fill="none" stroke="#191970" d="M40.8027,-55.4179C40.8027,-48.2164 40.8027,-37.8962 40.8027,-28.8632"/>
<polygon fill="#191970" stroke="#191970" points="44.3028,-28.7794 40.8027,-18.7795 37.3028,-28.7795 44.3028,-28.7794"/>
</g>
</g>
</svg>
