<?xml version="1.0" encoding="UTF-8" standalone="no"?>
<!DOCTYPE svg PUBLIC "-//W3C//DTD SVG 1.1//EN"
 "http://www.w3.org/Graphics/SVG/1.1/DTD/svg11.dtd">
<!-- Generated by graphviz version 2.40.1 (20161225.0304)
 -->
<!-- Title: ppht.hpp Pages: 1 -->
<svg width="1484pt" height="247pt"
 viewBox="0.00 0.00 1484.08 247.00" xmlns="http://www.w3.org/2000/svg" xmlns:xlink="http://www.w3.org/1999/xlink">
<g id="graph0" class="graph" transform="scale(1 1) rotate(0) translate(4 243)">
<title>ppht.hpp</title>
<polygon fill="#ffffff" stroke="transparent" points="-4,4 -4,-243 1480.0849,-243 1480.0849,4 -4,4"/>
<!-- Node0 -->
<g id="node1" class="node">
<title>Node0</title>
<polygon fill="#bfbfbf" stroke="#000000" points="923.6772,-220.5 923.6772,-238.5 978.603,-238.5 978.603,-220.5 923.6772,-220.5"/>
<text text-anchor="middle" x="951.1401" y="-226.5" font-family="Helvetica,sans-Serif" font-size="10.00" fill="#000000">ppht.hpp</text>
</g>
<!-- Node1 -->
<g id="node2" class="node">
<title>Node1</title>
<g id="a_node2"><a xlink:href="raster_8hpp.html" target="_top" xlink:title="ppht/raster.hpp">
<polygon fill="#ffffff" stroke="#000000" points="909.7808,-110.5 909.7808,-128.5 992.4995,-128.5 992.4995,-110.5 909.7808,-110.5"/>
<text text-anchor="middle" x="951.1401" y="-116.5" font-family="Helvetica,sans-Serif" font-size="10.00" fill="#000000">ppht/raster.hpp</text>
</a>
</g>
</g>
<!-- Node0&#45;&gt;Node1 -->
<g id="edge1" class="edge">
<title>Node0&#45;&gt;Node1</title>
<path fill="none" stroke="#191970" d="M951.1401,-220.4982C951.1401,-202.6913 951.1401,-162.6225 951.1401,-138.6515"/>
<polygon fill="#191970" stroke="#191970" points="954.6402,-138.6261 951.1401,-128.6261 947.6402,-138.6262 954.6402,-138.6261"/>
</g>
<!-- Node3 -->
<g id="node4" class="node">
<title>Node3</title>
<g id="a_node4"><a xlink:href="accumulator_8hpp.html" target="_top" xlink:title="ppht/accumulator.hpp">
<polygon fill="#ffffff" stroke="#000000" points="579.3276,-165.5 579.3276,-183.5 690.9526,-183.5 690.9526,-165.5 579.3276,-165.5"/>
<text text-anchor="middle" x="635.1401" y="-171.5" font-family="Helvetica,sans-Serif" font-size="10.00" fill="#000000">ppht/accumulator.hpp</text>
</a>
</g>
</g>
<!-- Node0&#45;&gt;Node3 -->
<g id="edge3" class="edge">
<title>Node0&#45;&gt;Node3</title>
<path fill="none" stroke="#191970" d="M923.65,-224.7153C873.4467,-215.9774 765.7852,-197.2389 697.1134,-185.2865"/>
<polygon fill="#191970" stroke="#191970" points="697.311,-181.7683 686.8589,-183.5017 696.1106,-188.6647 697.311,-181.7683"/>
</g>
<!-- Node4 -->
<g id="node5" class="node">
<title>Node4</title>
<g id="a_node5"><a xlink:href="parameters_8hpp.html" target="_top" xlink:title="ppht/parameters.hpp">
<polygon fill="#ffffff" stroke="#000000" points="0,-110.5 0,-128.5 108.2803,-128.5 108.2803,-110.5 0,-110.5"/>
<text text-anchor="middle" x="54.1401" y="-116.5" font-family="Helvetica,sans-Serif" font-size="10.00" fill="#000000">ppht/parameters.hpp</text>
</a>
</g>
</g>
<!-- Node0&#45;&gt;Node4 -->
<g id="edge31" class="edge">
<title>Node0&#45;&gt;Node4</title>
<path fill="none" stroke="#191970" d="M923.4068,-226.2409C860.5425,-218.8419 702.3879,-200.162 570.1401,-184 407.4246,-164.1145 215.9449,-139.9895 118.3616,-127.6428"/>
<polygon fill="#191970" stroke="#191970" points="118.72,-124.1603 108.3596,-126.3769 117.841,-131.1049 118.72,-124.1603"/>
</g>
<!-- Node22 -->
<g id="node23" class="node">
<title>Node22</title>
<g id="a_node23"><a xlink:href="point__set_8hpp.html" target="_top" xlink:title="ppht/point_set.hpp">
<polygon fill="#ffffff" stroke="#000000" points="1363.9951,-110.5 1363.9951,-128.5 1462.2852,-128.5 1462.2852,-110.5 1363.9951,-110.5"/>
<text text-anchor="middle" x="1413.1401" y="-116.5" font-family="Helvetica,sans-Serif" font-size="10.00" fill="#000000">ppht/point_set.hpp</text>
</a>
</g>
</g>
<!-- Node0&#45;&gt;Node22 -->
<g id="edge32" class="edge">
<title>Node0&#45;&gt;Node22</title>
<path fill="none" stroke="#191970" d="M978.8752,-225.4442C1024.9418,-218.4776 1119.9979,-203.124 1199.1401,-184 1262.5175,-168.6854 1334.8919,-145.6872 1377.1487,-131.6896"/>
<polygon fill="#191970" stroke="#191970" points="1378.329,-134.9856 1386.7109,-128.5053 1376.1173,-128.3442 1378.329,-134.9856"/>
</g>
<!-- Node23 -->
<g id="node24" class="node">
<title>Node23</title>
<g id="a_node24"><a xlink:href="state_8hpp.html" target="_top" xlink:title="ppht/state.hpp">
<polygon fill="#ffffff" stroke="#000000" points="1110.4482,-165.5 1110.4482,-183.5 1189.832,-183.5 1189.832,-165.5 1110.4482,-165.5"/>
<text text-anchor="middle" x="1150.1401" y="-171.5" font-family="Helvetica,sans-Serif" font-size="10.00" fill="#000000">ppht/state.hpp</text>
</a>
</g>
</g>
<!-- Node0&#45;&gt;Node23 -->
<g id="edge35" class="edge">
<title>Node0&#45;&gt;Node23</title>
<path fill="none" stroke="#191970" d="M978.8102,-221.8525C1012.1424,-212.6401 1068.5026,-197.0631 1107.4295,-186.3045"/>
<polygon fill="#191970" stroke="#191970" points="1108.7124,-189.5812 1117.4187,-183.5436 1106.8476,-182.8341 1108.7124,-189.5812"/>
</g>
<!-- Node2 -->
<g id="node3" class="node">
<title>Node2</title>
<polygon fill="#ffffff" stroke="#bfbfbf" points="804.0835,-55.5 804.0835,-73.5 856.1968,-73.5 856.1968,-55.5 804.0835,-55.5"/>
<text text-anchor="middle" x="830.1401" y="-61.5" font-family="Helvetica,sans-Serif" font-size="10.00" fill="#000000">memory</text>
</g>
<!-- Node1&#45;&gt;Node2 -->
<g id="edge2" class="edge">
<title>Node1&#45;&gt;Node2</title>
<path fill="none" stroke="#191970" d="M931.1594,-110.4179C911.6301,-101.5409 881.6757,-87.9253 859.4506,-77.823"/>
<polygon fill="#191970" stroke="#191970" points="860.7025,-74.5474 850.1505,-73.5956 857.8059,-80.92 860.7025,-74.5474"/>
</g>
<!-- Node3&#45;&gt;Node1 -->
<g id="edge6" class="edge">
<title>Node3&#45;&gt;Node1</title>
<path fill="none" stroke="#191970" d="M689.7019,-165.4678C741.301,-156.8581 821.1776,-143.3554 899.6243,-129.2509"/>
<polygon fill="#191970" stroke="#191970" points="900.4592,-132.6568 909.6796,-127.4381 899.2173,-125.7679 900.4592,-132.6568"/>
</g>
<!-- Node3&#45;&gt;Node2 -->
<g id="edge23" class="edge">
<title>Node3&#45;&gt;Node2</title>
<path fill="none" stroke="#191970" d="M644.9197,-165.1175C659.481,-151.5357 688.1586,-126.2491 716.1401,-110 740.861,-95.6444 770.9773,-83.8399 794.0462,-75.8549"/>
<polygon fill="#191970" stroke="#191970" points="795.4305,-79.0816 803.7842,-72.565 793.19,-72.4498 795.4305,-79.0816"/>
</g>
<!-- Node3&#45;&gt;Node4 -->
<g id="edge4" class="edge">
<title>Node3&#45;&gt;Node4</title>
<path fill="none" stroke="#191970" d="M579.2525,-170.4693C484.8922,-163.4566 288.0404,-147.9336 122.1401,-129 120.8744,-128.8555 119.5958,-128.7066 118.3077,-128.5538"/>
<polygon fill="#191970" stroke="#191970" points="118.6532,-125.0699 108.2994,-127.3168 117.7946,-132.0171 118.6532,-125.0699"/>
</g>
<!-- Node5 -->
<g id="node6" class="node">
<title>Node5</title>
<polygon fill="#ffffff" stroke="#bfbfbf" points="113.6895,-55.5 113.6895,-73.5 158.5908,-73.5 158.5908,-55.5 113.6895,-55.5"/>
<text text-anchor="middle" x="136.1401" y="-61.5" font-family="Helvetica,sans-Serif" font-size="10.00" fill="#000000">cstdint</text>
</g>
<!-- Node3&#45;&gt;Node5 -->
<g id="edge20" class="edge">
<title>Node3&#45;&gt;Node5</title>
<path fill="none" stroke="#191970" d="M579.1269,-172.6771C459.4959,-168.29 187.2735,-155.4893 155.1401,-129 141.9328,-118.1124 137.6216,-98.5376 136.3487,-83.7985"/>
<polygon fill="#191970" stroke="#191970" points="139.8394,-83.5173 135.8704,-73.694 132.8472,-83.8483 139.8394,-83.5173"/>
</g>
<!-- Node6 -->
<g id="node7" class="node">
<title>Node6</title>
<g id="a_node7"><a xlink:href="trig_8hpp.html" target="_top" xlink:title="ppht/trig.hpp">
<polygon fill="#ffffff" stroke="#000000" points="230.3423,-110.5 230.3423,-128.5 301.938,-128.5 301.938,-110.5 230.3423,-110.5"/>
<text text-anchor="middle" x="266.1401" y="-116.5" font-family="Helvetica,sans-Serif" font-size="10.00" fill="#000000">ppht/trig.hpp</text>
</a>
</g>
</g>
<!-- Node3&#45;&gt;Node6 -->
<g id="edge7" class="edge">
<title>Node3&#45;&gt;Node6</title>
<path fill="none" stroke="#191970" d="M579.1238,-167.3051C515.3263,-158.9263 408.0236,-144.2734 316.1401,-129 314.8654,-128.7881 313.5731,-128.5694 312.2694,-128.3454"/>
<polygon fill="#191970" stroke="#191970" points="312.6129,-124.8517 302.1548,-126.5481 311.3882,-131.7437 312.6129,-124.8517"/>
</g>
<!-- Node7 -->
<g id="node8" class="node">
<title>Node7</title>
<polygon fill="#ffffff" stroke="#bfbfbf" points="326.0244,-55.5 326.0244,-73.5 374.2559,-73.5 374.2559,-55.5 326.0244,-55.5"/>
<text text-anchor="middle" x="350.1401" y="-61.5" font-family="Helvetica,sans-Serif" font-size="10.00" fill="#000000">cassert</text>
</g>
<!-- Node3&#45;&gt;Node7 -->
<g id="edge17" class="edge">
<title>Node3&#45;&gt;Node7</title>
<path fill="none" stroke="#191970" d="M579.0284,-169.4647C500.0083,-161.7985 363.8686,-146.2569 349.1401,-129 338.5958,-116.6455 340.3197,-97.5878 343.7956,-83.3872"/>
<polygon fill="#191970" stroke="#191970" points="347.1908,-84.2457 346.6209,-73.6662 340.469,-82.292 347.1908,-84.2457"/>
</g>
<!-- Node8 -->
<g id="node9" class="node">
<title>Node8</title>
<polygon fill="#ffffff" stroke="#bfbfbf" points="582.5244,-55.5 582.5244,-73.5 625.7559,-73.5 625.7559,-55.5 582.5244,-55.5"/>
<text text-anchor="middle" x="604.1401" y="-61.5" font-family="Helvetica,sans-Serif" font-size="10.00" fill="#000000">cmath</text>
</g>
<!-- Node3&#45;&gt;Node8 -->
<g id="edge18" class="edge">
<title>Node3&#45;&gt;Node8</title>
<path fill="none" stroke="#191970" d="M632.6033,-165.4982C627.5623,-147.6108 616.1905,-107.2594 609.4459,-83.3271"/>
<polygon fill="#191970" stroke="#191970" points="612.7934,-82.3018 606.712,-73.6261 606.0559,-84.2006 612.7934,-82.3018"/>
</g>
<!-- Node10 -->
<g id="node11" class="node">
<title>Node10</title>
<polygon fill="#ffffff" stroke="#bfbfbf" points="634.7485,-.5 634.7485,-18.5 673.5317,-18.5 673.5317,-.5 634.7485,-.5"/>
<text text-anchor="middle" x="654.1401" y="-6.5" font-family="Helvetica,sans-Serif" font-size="10.00" fill="#000000">utility</text>
</g>
<!-- Node3&#45;&gt;Node10 -->
<g id="edge29" class="edge">
<title>Node3&#45;&gt;Node10</title>
<path fill="none" stroke="#191970" d="M636.2161,-165.1561C639.2337,-138.9504 647.8234,-64.3557 651.9175,-28.8021"/>
<polygon fill="#191970" stroke="#191970" points="655.409,-29.0762 653.076,-18.7414 648.4549,-28.2753 655.409,-29.0762"/>
</g>
<!-- Node11 -->
<g id="node12" class="node">
<title>Node11</title>
<g id="a_node12"><a xlink:href="types_8hpp.html" target="_top" xlink:title="ppht/types.hpp">
<polygon fill="#ffffff" stroke="#000000" points="1258.3374,-55.5 1258.3374,-73.5 1339.9429,-73.5 1339.9429,-55.5 1258.3374,-55.5"/>
<text text-anchor="middle" x="1299.1401" y="-61.5" font-family="Helvetica,sans-Serif" font-size="10.00" fill="#000000">ppht/types.hpp</text>
</a>
</g>
</g>
<!-- Node3&#45;&gt;Node11 -->
<g id="edge14" class="edge">
<title>Node3&#45;&gt;Node11</title>
<path fill="none" stroke="#191970" d="M659.063,-165.4204C682.4192,-156.4654 718.9041,-142.2356 750.1401,-129 769.0044,-121.0067 772.2975,-115.1013 792.1401,-110 986.7066,-59.9797 1045.9109,-100.1359 1248.2335,-74.1107"/>
<polygon fill="#191970" stroke="#191970" points="1248.8367,-77.5615 1258.2903,-72.7781 1247.9171,-70.6221 1248.8367,-77.5615"/>
</g>
<!-- Node12 -->
<g id="node13" class="node">
<title>Node12</title>
<polygon fill="#ffffff" stroke="#bfbfbf" points="834.5762,-110.5 834.5762,-128.5 891.7041,-128.5 891.7041,-110.5 834.5762,-110.5"/>
<text text-anchor="middle" x="863.1401" y="-116.5" font-family="Helvetica,sans-Serif" font-size="10.00" fill="#000000">algorithm</text>
</g>
<!-- Node3&#45;&gt;Node12 -->
<g id="edge16" class="edge">
<title>Node3&#45;&gt;Node12</title>
<path fill="none" stroke="#191970" d="M672.5344,-165.4795C714.4336,-155.3722 782.0288,-139.0663 824.4494,-128.8333"/>
<polygon fill="#191970" stroke="#191970" points="825.5001,-132.1803 834.4005,-126.4328 823.8585,-125.3755 825.5001,-132.1803"/>
</g>
<!-- Node13 -->
<g id="node14" class="node">
<title>Node13</title>
<polygon fill="#ffffff" stroke="#bfbfbf" points="164.0195,-110.5 164.0195,-128.5 212.2607,-128.5 212.2607,-110.5 164.0195,-110.5"/>
<text text-anchor="middle" x="188.1401" y="-116.5" font-family="Helvetica,sans-Serif" font-size="10.00" fill="#000000">cstddef</text>
</g>
<!-- Node3&#45;&gt;Node13 -->
<g id="edge19" class="edge">
<title>Node3&#45;&gt;Node13</title>
<path fill="none" stroke="#191970" d="M579.1012,-171.3869C501.0401,-166.3798 355.1125,-154.5888 222.4667,-128.9748"/>
<polygon fill="#191970" stroke="#191970" points="223.0214,-125.517 212.5345,-127.0258 221.6734,-132.386 223.0214,-125.517"/>
</g>
<!-- Node14 -->
<g id="node15" class="node">
<title>Node14</title>
<polygon fill="#ffffff" stroke="#bfbfbf" points="1020.9678,-55.5 1020.9678,-73.5 1065.3125,-73.5 1065.3125,-55.5 1020.9678,-55.5"/>
<text text-anchor="middle" x="1043.1401" y="-61.5" font-family="Helvetica,sans-Serif" font-size="10.00" fill="#000000">cstdlib</text>
</g>
<!-- Node3&#45;&gt;Node14 -->
<g id="edge21" class="edge">
<title>Node3&#45;&gt;Node14</title>
<path fill="none" stroke="#191970" d="M651.2624,-165.3644C681.2176,-148.4496 743.4005,-113.6358 754.1401,-110 843.8945,-79.6149 956.3154,-69.3521 1010.6982,-66.0201"/>
<polygon fill="#191970" stroke="#191970" points="1010.9937,-69.509 1020.777,-65.4422 1010.593,-62.5205 1010.9937,-69.509"/>
</g>
<!-- Node15 -->
<g id="node16" class="node">
<title>Node15</title>
<polygon fill="#ffffff" stroke="#bfbfbf" points="357.7534,-110.5 357.7534,-128.5 396.5269,-128.5 396.5269,-110.5 357.7534,-110.5"/>
<text text-anchor="middle" x="377.1401" y="-116.5" font-family="Helvetica,sans-Serif" font-size="10.00" fill="#000000">limits</text>
</g>
<!-- Node3&#45;&gt;Node15 -->
<g id="edge22" class="edge">
<title>Node3&#45;&gt;Node15</title>
<path fill="none" stroke="#191970" d="M580.1197,-165.4868C535.7446,-157.7833 471.5929,-145.6715 406.6979,-128.884"/>
<polygon fill="#191970" stroke="#191970" points="407.2613,-125.4135 396.7004,-126.2617 405.4852,-132.1844 407.2613,-125.4135"/>
</g>
<!-- Node16 -->
<g id="node17" class="node">
<title>Node16</title>
<polygon fill="#ffffff" stroke="#bfbfbf" points="1010.187,-110.5 1010.187,-128.5 1060.0933,-128.5 1060.0933,-110.5 1010.187,-110.5"/>
<text text-anchor="middle" x="1035.1401" y="-116.5" font-family="Helvetica,sans-Serif" font-size="10.00" fill="#000000">random</text>
</g>
<!-- Node3&#45;&gt;Node16 -->
<g id="edge24" class="edge">
<title>Node3&#45;&gt;Node16</title>
<path fill="none" stroke="#191970" d="M691.0497,-170.1538C761.154,-164.1271 885.1048,-151.5672 999.9713,-128.9776"/>
<polygon fill="#191970" stroke="#191970" points="1000.8693,-132.3675 1009.9902,-126.9768 999.4983,-125.503 1000.8693,-132.3675"/>
</g>
<!-- Node17 -->
<g id="node18" class="node">
<title>Node17</title>
<polygon fill="#ffffff" stroke="#bfbfbf" points="1398.4702,-55.5 1398.4702,-73.5 1427.8101,-73.5 1427.8101,-55.5 1398.4702,-55.5"/>
<text text-anchor="middle" x="1413.1401" y="-61.5" font-family="Helvetica,sans-Serif" font-size="10.00" fill="#000000">set</text>
</g>
<!-- Node3&#45;&gt;Node17 -->
<g id="edge25" class="edge">
<title>Node3&#45;&gt;Node17</title>
<path fill="none" stroke="#191970" d="M670.1918,-165.4599C700.9128,-157.1619 746.5598,-143.9186 785.1401,-129 803.4969,-121.9016 806.1002,-114.984 825.1401,-110 1050.9691,-50.8857 1117.0618,-99.1572 1349.1401,-74 1362.1362,-72.5912 1376.5423,-70.5001 1388.3907,-68.6381"/>
<polygon fill="#191970" stroke="#191970" points="1389.1233,-72.0653 1398.439,-67.0187 1388.0095,-65.1544 1389.1233,-72.0653"/>
</g>
<!-- Node18 -->
<g id="node19" class="node">
<title>Node18</title>
<polygon fill="#ffffff" stroke="#bfbfbf" points="414.7388,-110.5 414.7388,-128.5 473.5415,-128.5 473.5415,-110.5 414.7388,-110.5"/>
<text text-anchor="middle" x="444.1401" y="-116.5" font-family="Helvetica,sans-Serif" font-size="10.00" fill="#000000">stdexcept</text>
</g>
<!-- Node3&#45;&gt;Node18 -->
<g id="edge26" class="edge">
<title>Node3&#45;&gt;Node18</title>
<path fill="none" stroke="#191970" d="M603.6004,-165.4179C570.812,-155.9762 519.4074,-141.1738 483.8675,-130.9398"/>
<polygon fill="#191970" stroke="#191970" points="484.4178,-127.4561 473.8398,-128.0522 482.4808,-134.1828 484.4178,-127.4561"/>
</g>
<!-- Node19 -->
<g id="node20" class="node">
<title>Node19</title>
<polygon fill="#ffffff" stroke="#bfbfbf" points="491.9136,-110.5 491.9136,-128.5 532.3667,-128.5 532.3667,-110.5 491.9136,-110.5"/>
<text text-anchor="middle" x="512.1401" y="-116.5" font-family="Helvetica,sans-Serif" font-size="10.00" fill="#000000">string</text>
</g>
<!-- Node3&#45;&gt;Node19 -->
<g id="edge27" class="edge">
<title>Node3&#45;&gt;Node19</title>
<path fill="none" stroke="#191970" d="M614.8292,-165.4179C594.888,-156.5011 564.2542,-142.803 541.6316,-132.6873"/>
<polygon fill="#191970" stroke="#191970" points="543.0389,-129.4826 532.4813,-128.5956 540.1814,-135.8728 543.0389,-129.4826"/>
</g>
<!-- Node20 -->
<g id="node21" class="node">
<title>Node20</title>
<polygon fill="#ffffff" stroke="#bfbfbf" points="550.2979,-110.5 550.2979,-128.5 587.9824,-128.5 587.9824,-110.5 550.2979,-110.5"/>
<text text-anchor="middle" x="569.1401" y="-116.5" font-family="Helvetica,sans-Serif" font-size="10.00" fill="#000000">tuple</text>
</g>
<!-- Node3&#45;&gt;Node20 -->
<g id="edge28" class="edge">
<title>Node3&#45;&gt;Node20</title>
<path fill="none" stroke="#191970" d="M624.2416,-165.4179C614.4602,-157.2667 599.8843,-145.1201 588.1805,-135.3669"/>
<polygon fill="#191970" stroke="#191970" points="590.1984,-132.4926 580.2755,-128.7795 585.7171,-137.8701 590.1984,-132.4926"/>
</g>
<!-- Node21 -->
<g id="node22" class="node">
<title>Node21</title>
<polygon fill="#ffffff" stroke="#bfbfbf" points="1078.5244,-110.5 1078.5244,-128.5 1121.7559,-128.5 1121.7559,-110.5 1078.5244,-110.5"/>
<text text-anchor="middle" x="1100.1401" y="-116.5" font-family="Helvetica,sans-Serif" font-size="10.00" fill="#000000">vector</text>
</g>
<!-- Node3&#45;&gt;Node21 -->
<g id="edge30" class="edge">
<title>Node3&#45;&gt;Node21</title>
<path fill="none" stroke="#191970" d="M691.1562,-172.0826C772.3967,-167.8186 927.6489,-156.8213 1068.1689,-128.8226"/>
<polygon fill="#191970" stroke="#191970" points="1069.1543,-132.1941 1078.2597,-126.7772 1067.7636,-125.3337 1069.1543,-132.1941"/>
</g>
<!-- Node4&#45;&gt;Node5 -->
<g id="edge5" class="edge">
<title>Node4&#45;&gt;Node5</title>
<path fill="none" stroke="#191970" d="M67.6808,-110.4179C80.2627,-101.9788 99.2297,-89.257 114.0112,-79.3426"/>
<polygon fill="#191970" stroke="#191970" points="116.2241,-82.0727 122.5794,-73.5956 112.3248,-76.2593 116.2241,-82.0727"/>
</g>
<!-- Node6&#45;&gt;Node2 -->
<g id="edge12" class="edge">
<title>Node6&#45;&gt;Node2</title>
<path fill="none" stroke="#191970" d="M302.0751,-115.231C316.6729,-113.5375 333.7051,-111.6132 349.1401,-110 515.2087,-92.6432 713.8447,-74.768 793.9879,-67.6753"/>
<polygon fill="#191970" stroke="#191970" points="794.3992,-71.1527 804.0524,-66.7862 793.7832,-64.1798 794.3992,-71.1527"/>
</g>
<!-- Node6&#45;&gt;Node5 -->
<g id="edge10" class="edge">
<title>Node6&#45;&gt;Node5</title>
<path fill="none" stroke="#191970" d="M244.6733,-110.4179C223.5031,-101.4613 190.9308,-87.6806 166.9903,-77.552"/>
<polygon fill="#191970" stroke="#191970" points="168.2123,-74.2687 157.6389,-73.5956 165.4848,-80.7155 168.2123,-74.2687"/>
</g>
<!-- Node6&#45;&gt;Node7 -->
<g id="edge8" class="edge">
<title>Node6&#45;&gt;Node7</title>
<path fill="none" stroke="#191970" d="M280.011,-110.4179C292.8998,-101.9788 312.3295,-89.257 327.4715,-79.3426"/>
<polygon fill="#191970" stroke="#191970" points="329.7997,-82.0017 336.2486,-73.5956 325.9652,-76.1454 329.7997,-82.0017"/>
</g>
<!-- Node6&#45;&gt;Node8 -->
<g id="edge9" class="edge">
<title>Node6&#45;&gt;Node8</title>
<path fill="none" stroke="#191970" d="M301.9921,-113.6661C368.3231,-102.8726 509.1791,-79.9522 572.3373,-69.675"/>
<polygon fill="#191970" stroke="#191970" points="573.1811,-73.0838 582.4891,-68.0231 572.0568,-66.1747 573.1811,-73.0838"/>
</g>
<!-- Node9 -->
<g id="node10" class="node">
<title>Node9</title>
<polygon fill="#ffffff" stroke="#bfbfbf" points="223.8545,-55.5 223.8545,-73.5 270.4258,-73.5 270.4258,-55.5 223.8545,-55.5"/>
<text text-anchor="middle" x="247.1401" y="-61.5" font-family="Helvetica,sans-Serif" font-size="10.00" fill="#000000">math.h</text>
</g>
<!-- Node6&#45;&gt;Node9 -->
<g id="edge11" class="edge">
<title>Node6&#45;&gt;Node9</title>
<path fill="none" stroke="#191970" d="M263.0027,-110.4179C260.4602,-103.0581 256.7925,-92.441 253.6241,-83.2695"/>
<polygon fill="#191970" stroke="#191970" points="256.9192,-82.0885 250.3458,-73.7795 250.3029,-84.3742 256.9192,-82.0885"/>
</g>
<!-- Node6&#45;&gt;Node10 -->
<g id="edge13" class="edge">
<title>Node6&#45;&gt;Node10</title>
<path fill="none" stroke="#191970" d="M270.5579,-110.15C277.9565,-95.6363 294.3189,-68.0054 317.1401,-55 369.3441,-25.25 551.5881,-14.0438 624.073,-10.7008"/>
<polygon fill="#191970" stroke="#191970" points="624.5003,-14.1854 634.3358,-10.2466 624.1908,-7.1922 624.5003,-14.1854"/>
</g>
<!-- Node11&#45;&gt;Node10 -->
<g id="edge15" class="edge">
<title>Node11&#45;&gt;Node10</title>
<path fill="none" stroke="#191970" d="M1258.2912,-56.2149C1255.5384,-55.7694 1252.8024,-55.3585 1250.1401,-55 1034.1473,-25.9159 771.4243,-13.9292 684.0129,-10.5615"/>
<polygon fill="#191970" stroke="#191970" points="683.9013,-7.0549 673.7766,-10.1761 683.6378,-14.05 683.9013,-7.0549"/>
</g>
<!-- Node22&#45;&gt;Node11 -->
<g id="edge33" class="edge">
<title>Node22&#45;&gt;Node11</title>
<path fill="none" stroke="#191970" d="M1394.3154,-110.4179C1375.9983,-101.5807 1347.9472,-88.0473 1327.0371,-77.9591"/>
<polygon fill="#191970" stroke="#191970" points="1328.5203,-74.7887 1317.9929,-73.5956 1325.4786,-81.0933 1328.5203,-74.7887"/>
</g>
<!-- Node22&#45;&gt;Node17 -->
<g id="edge34" class="edge">
<title>Node22&#45;&gt;Node17</title>
<path fill="none" stroke="#191970" d="M1413.1401,-110.4179C1413.1401,-103.2164 1413.1401,-92.8962 1413.1401,-83.8632"/>
<polygon fill="#191970" stroke="#191970" points="1416.6402,-83.7794 1413.1401,-73.7795 1409.6402,-83.7795 1416.6402,-83.7794"/>
</g>
<!-- Node23&#45;&gt;Node1 -->
<g id="edge42" class="edge">
<title>Node23&#45;&gt;Node1</title>
<path fill="none" stroke="#191970" d="M1117.2793,-165.4179C1083.4756,-156.0751 1030.6801,-141.4834 993.7008,-131.263"/>
<polygon fill="#191970" stroke="#191970" points="994.2901,-127.7947 983.719,-128.5042 992.4252,-134.5418 994.2901,-127.7947"/>
</g>
<!-- Node23&#45;&gt;Node7 -->
<g id="edge45" class="edge">
<title>Node23&#45;&gt;Node7</title>
<path fill="none" stroke="#191970" d="M1150.468,-165.2341C1150.4164,-150.8356 1147.9594,-123.3597 1131.1401,-110 1116.3063,-98.2174 533.8299,-72.4007 384.6564,-65.972"/>
<polygon fill="#191970" stroke="#191970" points="384.4281,-62.4591 374.287,-65.5263 384.1274,-69.4526 384.4281,-62.4591"/>
</g>
<!-- Node23&#45;&gt;Node8 -->
<g id="edge46" class="edge">
<title>Node23&#45;&gt;Node8</title>
<path fill="none" stroke="#191970" d="M1156.5169,-165.2908C1165.2369,-151.4642 1178.277,-125.332 1164.1401,-110 1155.1133,-100.21 753.7948,-74.0013 636.1989,-66.5196"/>
<polygon fill="#191970" stroke="#191970" points="636.237,-63.0151 626.0355,-65.8747 635.7937,-70.001 636.237,-63.0151"/>
</g>
<!-- Node23&#45;&gt;Node11 -->
<g id="edge43" class="edge">
<title>Node23&#45;&gt;Node11</title>
<path fill="none" stroke="#191970" d="M1189.946,-169.2378C1234.2838,-162.4643 1301.7703,-149.1177 1317.1401,-129 1327.4624,-115.4891 1320.116,-96.3645 1311.9199,-82.4499"/>
<polygon fill="#191970" stroke="#191970" points="1314.6848,-80.28 1306.3165,-73.7821 1308.8062,-84.0803 1314.6848,-80.28"/>
</g>
<!-- Node23&#45;&gt;Node12 -->
<g id="edge44" class="edge">
<title>Node23&#45;&gt;Node12</title>
<path fill="none" stroke="#191970" d="M1110.3089,-168.033C1063.0367,-160.1791 981.6171,-146.0913 901.939,-129.0575"/>
<polygon fill="#191970" stroke="#191970" points="902.241,-125.5423 891.7279,-126.856 900.7657,-132.385 902.241,-125.5423"/>
</g>
<!-- Node23&#45;&gt;Node16 -->
<g id="edge47" class="edge">
<title>Node23&#45;&gt;Node16</title>
<path fill="none" stroke="#191970" d="M1131.1502,-165.4179C1112.6725,-156.5807 1084.3753,-143.0473 1063.2818,-132.9591"/>
<polygon fill="#191970" stroke="#191970" points="1064.6897,-129.7528 1054.1583,-128.5956 1061.6695,-136.0677 1064.6897,-129.7528"/>
</g>
<!-- Node23&#45;&gt;Node17 -->
<g id="edge48" class="edge">
<title>Node23&#45;&gt;Node17</title>
<path fill="none" stroke="#191970" d="M1189.9121,-171.7454C1271.7575,-165.6719 1452.9198,-149.9851 1471.1401,-129 1487.2805,-110.4105 1459.1555,-89.2607 1436.7173,-76.401"/>
<polygon fill="#191970" stroke="#191970" points="1438.3517,-73.3057 1427.8974,-71.5861 1434.9976,-79.4498 1438.3517,-73.3057"/>
</g>
<!-- Node23&#45;&gt;Node21 -->
<g id="edge49" class="edge">
<title>Node23&#45;&gt;Node21</title>
<path fill="none" stroke="#191970" d="M1141.8837,-165.4179C1134.6893,-157.5041 1124.0713,-145.8243 1115.3448,-136.2251"/>
<polygon fill="#191970" stroke="#191970" points="1117.8926,-133.8245 1108.576,-128.7795 1112.713,-138.5332 1117.8926,-133.8245"/>
</g>
<!-- Node23&#45;&gt;Node22 -->
<g id="edge41" class="edge">
<title>Node23&#45;&gt;Node22</title>
<path fill="none" stroke="#191970" d="M1190.0842,-166.1467C1235.3892,-156.6722 1309.4778,-141.1784 1359.7223,-130.671"/>
<polygon fill="#191970" stroke="#191970" points="1360.6784,-134.0469 1369.7502,-128.5739 1359.2455,-127.1951 1360.6784,-134.0469"/>
</g>
<!-- Node24 -->
<g id="node25" class="node">
<title>Node24</title>
<g id="a_node25"><a xlink:href="channel_8hpp.html" target="_top" xlink:title="ppht/channel.hpp">
<polygon fill="#ffffff" stroke="#000000" points="1215.7734,-110.5 1215.7734,-128.5 1308.5068,-128.5 1308.5068,-110.5 1215.7734,-110.5"/>
<text text-anchor="middle" x="1262.1401" y="-116.5" font-family="Helvetica,sans-Serif" font-size="10.00" fill="#000000">ppht/channel.hpp</text>
</a>
</g>
</g>
<!-- Node23&#45;&gt;Node24 -->
<g id="edge36" class="edge">
<title>Node23&#45;&gt;Node24</title>
<path fill="none" stroke="#191970" d="M1168.6347,-165.4179C1186.5493,-156.6205 1213.9412,-143.1691 1234.4545,-133.0956"/>
<polygon fill="#191970" stroke="#191970" points="1236.1848,-136.1452 1243.6181,-128.5956 1233.0992,-129.8619 1236.1848,-136.1452"/>
</g>
<!-- Node24&#45;&gt;Node2 -->
<g id="edge40" class="edge">
<title>Node24&#45;&gt;Node2</title>
<path fill="none" stroke="#191970" d="M1215.651,-111.9732C1211.0889,-111.2845 1206.5267,-110.6153 1202.1401,-110 1079.2051,-92.7549 932.886,-75.9419 866.3227,-68.4957"/>
<polygon fill="#191970" stroke="#191970" points="866.6666,-65.0124 856.3403,-67.3824 865.8907,-71.9693 866.6666,-65.0124"/>
</g>
<!-- Node24&#45;&gt;Node11 -->
<g id="edge37" class="edge">
<title>Node24&#45;&gt;Node11</title>
<path fill="none" stroke="#191970" d="M1268.2499,-110.4179C1273.414,-102.7415 1280.9619,-91.5217 1287.3038,-82.0945"/>
<polygon fill="#191970" stroke="#191970" points="1290.2198,-84.0303 1292.8976,-73.7795 1284.4117,-80.1231 1290.2198,-84.0303"/>
</g>
<!-- Node24&#45;&gt;Node14 -->
<g id="edge38" class="edge">
<title>Node24&#45;&gt;Node14</title>
<path fill="none" stroke="#191970" d="M1225.9767,-110.4179C1183.955,-99.8645 1115.2652,-82.6136 1075.1179,-72.5309"/>
<polygon fill="#191970" stroke="#191970" points="1075.8702,-69.1113 1065.3188,-70.07 1074.1651,-75.9004 1075.8702,-69.1113"/>
</g>
<!-- Node25 -->
<g id="node26" class="node">
<title>Node25</title>
<polygon fill="#ffffff" stroke="#bfbfbf" points="1193.5786,-55.5 1193.5786,-73.5 1240.7017,-73.5 1240.7017,-55.5 1193.5786,-55.5"/>
<text text-anchor="middle" x="1217.1401" y="-61.5" font-family="Helvetica,sans-Serif" font-size="10.00" fill="#000000">iterator</text>
</g>
<!-- Node24&#45;&gt;Node25 -->
<g id="edge39" class="edge">
<title>Node24&#45;&gt;Node25</title>
<path fill="none" stroke="#191970" d="M1254.7093,-110.4179C1248.3639,-102.6624 1239.0592,-91.29 1231.2975,-81.8035"/>
<polygon fill="#191970" stroke="#191970" points="1233.7737,-79.3027 1224.7324,-73.7795 1228.356,-83.7354 1233.7737,-79.3027"/>
</g>
</g>
</svg>
