<?xml version="1.0" encoding="UTF-8" standalone="no"?>
<!DOCTYPE svg PUBLIC "-//W3C//DTD SVG 1.1//EN"
 "http://www.w3.org/Graphics/SVG/1.1/DTD/svg11.dtd">
<!-- Generated by graphviz version 2.40.1 (20161225.0304)
 -->
<!-- Title: ppht/state.hpp Pages: 1 -->
<svg width="703pt" height="192pt"
 viewBox="0.00 0.00 702.57 192.00" xmlns="http://www.w3.org/2000/svg" xmlns:xlink="http://www.w3.org/1999/xlink">
<g id="graph0" class="graph" transform="scale(1 1) rotate(0) translate(4 188)">
<title>ppht/state.hpp</title>
<polygon fill="#ffffff" stroke="transparent" points="-4,4 -4,-188 698.5717,-188 698.5717,4 -4,4"/>
<!-- Node0 -->
<g id="node1" class="node">
<title>Node0</title>
<polygon fill="#bfbfbf" stroke="#000000" points="324.2641,-165.5 324.2641,-183.5 403.6479,-183.5 403.6479,-165.5 324.2641,-165.5"/>
<text text-anchor="middle" x="363.956" y="-171.5" font-family="Helvetica,sans-Serif" font-size="10.00" fill="#000000">ppht/state.hpp</text>
</g>
<!-- Node1 -->
<g id="node2" class="node">
<title>Node1</title>
<g id="a_node2"><a xlink:href="channel_8hpp.html" target="_top" xlink:title="ppht/channel.hpp">
<polygon fill="#ffffff" stroke="#000000" points="167.5893,-110.5 167.5893,-128.5 260.3227,-128.5 260.3227,-110.5 167.5893,-110.5"/>
<text text-anchor="middle" x="213.956" y="-116.5" font-family="Helvetica,sans-Serif" font-size="10.00" fill="#000000">ppht/channel.hpp</text>
</a>
</g>
</g>
<!-- Node0&#45;&gt;Node1 -->
<g id="edge1" class="edge">
<title>Node0&#45;&gt;Node1</title>
<path fill="none" stroke="#191970" d="M339.1865,-165.4179C314.3596,-156.3147 275.9421,-142.2283 248.2041,-132.0576"/>
<polygon fill="#191970" stroke="#191970" points="249.1066,-128.6608 238.5129,-128.5042 246.6968,-135.2329 249.1066,-128.6608"/>
</g>
<!-- Node2 -->
<g id="node3" class="node">
<title>Node2</title>
<g id="a_node3"><a xlink:href="types_8hpp.html" target="_top" xlink:title="ppht/types.hpp">
<polygon fill="#ffffff" stroke="#000000" points="20.1532,-55.5 20.1532,-73.5 101.7587,-73.5 101.7587,-55.5 20.1532,-55.5"/>
<text text-anchor="middle" x="60.956" y="-61.5" font-family="Helvetica,sans-Serif" font-size="10.00" fill="#000000">ppht/types.hpp</text>
</a>
</g>
</g>
<!-- Node0&#45;&gt;Node2 -->
<g id="edge12" class="edge">
<title>Node0&#45;&gt;Node2</title>
<path fill="none" stroke="#191970" d="M324.2545,-172.3816C235.2375,-167.2265 25.8285,-152.6849 4.956,-129 -10.229,-111.7689 13.4553,-91.7797 34.5363,-78.6762"/>
<polygon fill="#191970" stroke="#191970" points="36.4573,-81.6066 43.2907,-73.5101 32.8997,-75.578 36.4573,-81.6066"/>
</g>
<!-- Node7 -->
<g id="node8" class="node">
<title>Node7</title>
<g id="a_node8"><a xlink:href="point__set_8hpp.html" target="_top" xlink:title="ppht/point_set.hpp">
<polygon fill="#ffffff" stroke="#000000" points="13.811,-110.5 13.811,-128.5 112.101,-128.5 112.101,-110.5 13.811,-110.5"/>
<text text-anchor="middle" x="62.956" y="-116.5" font-family="Helvetica,sans-Serif" font-size="10.00" fill="#000000">ppht/point_set.hpp</text>
</a>
</g>
</g>
<!-- Node0&#45;&gt;Node7 -->
<g id="edge7" class="edge">
<title>Node0&#45;&gt;Node7</title>
<path fill="none" stroke="#191970" d="M323.9855,-167.1964C272.3602,-157.7632 182.0636,-141.2639 122.3852,-130.3592"/>
<polygon fill="#191970" stroke="#191970" points="122.8149,-126.8798 112.3486,-128.5252 121.5566,-133.7658 122.8149,-126.8798"/>
</g>
<!-- Node8 -->
<g id="node9" class="node">
<title>Node8</title>
<polygon fill="#ffffff" stroke="#bfbfbf" points="119.286,-55.5 119.286,-73.5 148.6259,-73.5 148.6259,-55.5 119.286,-55.5"/>
<text text-anchor="middle" x="133.956" y="-61.5" font-family="Helvetica,sans-Serif" font-size="10.00" fill="#000000">set</text>
</g>
<!-- Node0&#45;&gt;Node8 -->
<g id="edge17" class="edge">
<title>Node0&#45;&gt;Node8</title>
<path fill="none" stroke="#191970" d="M323.9855,-170.1268C271.5593,-163.6491 183.3604,-149.9644 158.956,-129 145.5987,-117.5255 139.3411,-98.0361 136.4323,-83.4771"/>
<polygon fill="#191970" stroke="#191970" points="139.8714,-82.8206 134.7985,-73.5192 132.9638,-83.954 139.8714,-82.8206"/>
</g>
<!-- Node9 -->
<g id="node10" class="node">
<title>Node9</title>
<g id="a_node10"><a xlink:href="raster_8hpp.html" target="_top" xlink:title="ppht/raster.hpp">
<polygon fill="#ffffff" stroke="#000000" points="278.5966,-110.5 278.5966,-128.5 361.3153,-128.5 361.3153,-110.5 278.5966,-110.5"/>
<text text-anchor="middle" x="319.956" y="-116.5" font-family="Helvetica,sans-Serif" font-size="10.00" fill="#000000">ppht/raster.hpp</text>
</a>
</g>
</g>
<!-- Node0&#45;&gt;Node9 -->
<g id="edge10" class="edge">
<title>Node0&#45;&gt;Node9</title>
<path fill="none" stroke="#191970" d="M356.6903,-165.4179C350.4859,-157.6624 341.388,-146.29 333.7988,-136.8035"/>
<polygon fill="#191970" stroke="#191970" points="336.3596,-134.4017 327.3795,-128.7795 330.8935,-138.7746 336.3596,-134.4017"/>
</g>
<!-- Node10 -->
<g id="node11" class="node">
<title>Node10</title>
<polygon fill="#ffffff" stroke="#bfbfbf" points="379.392,-110.5 379.392,-128.5 436.5199,-128.5 436.5199,-110.5 379.392,-110.5"/>
<text text-anchor="middle" x="407.956" y="-116.5" font-family="Helvetica,sans-Serif" font-size="10.00" fill="#000000">algorithm</text>
</g>
<!-- Node0&#45;&gt;Node10 -->
<g id="edge13" class="edge">
<title>Node0&#45;&gt;Node10</title>
<path fill="none" stroke="#191970" d="M371.2217,-165.4179C377.4261,-157.6624 386.524,-146.29 394.1132,-136.8035"/>
<polygon fill="#191970" stroke="#191970" points="397.0185,-138.7746 400.5324,-128.7795 391.5524,-134.4017 397.0185,-138.7746"/>
</g>
<!-- Node11 -->
<g id="node12" class="node">
<title>Node11</title>
<polygon fill="#ffffff" stroke="#bfbfbf" points="454.8402,-110.5 454.8402,-128.5 503.0717,-128.5 503.0717,-110.5 454.8402,-110.5"/>
<text text-anchor="middle" x="478.956" y="-116.5" font-family="Helvetica,sans-Serif" font-size="10.00" fill="#000000">cassert</text>
</g>
<!-- Node0&#45;&gt;Node11 -->
<g id="edge14" class="edge">
<title>Node0&#45;&gt;Node11</title>
<path fill="none" stroke="#191970" d="M382.9459,-165.4179C401.4236,-156.5807 429.7208,-143.0473 450.8143,-132.9591"/>
<polygon fill="#191970" stroke="#191970" points="452.4266,-136.0677 459.9378,-128.5956 449.4064,-129.7528 452.4266,-136.0677"/>
</g>
<!-- Node12 -->
<g id="node13" class="node">
<title>Node12</title>
<polygon fill="#ffffff" stroke="#bfbfbf" points="521.3402,-110.5 521.3402,-128.5 564.5717,-128.5 564.5717,-110.5 521.3402,-110.5"/>
<text text-anchor="middle" x="542.956" y="-116.5" font-family="Helvetica,sans-Serif" font-size="10.00" fill="#000000">cmath</text>
</g>
<!-- Node0&#45;&gt;Node12 -->
<g id="edge15" class="edge">
<title>Node0&#45;&gt;Node12</title>
<path fill="none" stroke="#191970" d="M393.5142,-165.4179C426.0904,-155.4084 478.2747,-139.3741 511.5651,-129.1452"/>
<polygon fill="#191970" stroke="#191970" points="512.7165,-132.453 521.2474,-126.1702 510.6604,-125.7618 512.7165,-132.453"/>
</g>
<!-- Node13 -->
<g id="node14" class="node">
<title>Node13</title>
<polygon fill="#ffffff" stroke="#bfbfbf" points="583.0028,-110.5 583.0028,-128.5 632.9091,-128.5 632.9091,-110.5 583.0028,-110.5"/>
<text text-anchor="middle" x="607.956" y="-116.5" font-family="Helvetica,sans-Serif" font-size="10.00" fill="#000000">random</text>
</g>
<!-- Node0&#45;&gt;Node13 -->
<g id="edge16" class="edge">
<title>Node0&#45;&gt;Node13</title>
<path fill="none" stroke="#191970" d="M403.9858,-166.5602C444.2916,-158.4029 508.4647,-144.9737 572.8369,-129.1735"/>
<polygon fill="#191970" stroke="#191970" points="573.8818,-132.5206 582.7489,-126.7219 572.201,-125.7254 573.8818,-132.5206"/>
</g>
<!-- Node14 -->
<g id="node15" class="node">
<title>Node14</title>
<polygon fill="#ffffff" stroke="#bfbfbf" points="651.3402,-110.5 651.3402,-128.5 694.5717,-128.5 694.5717,-110.5 651.3402,-110.5"/>
<text text-anchor="middle" x="672.956" y="-116.5" font-family="Helvetica,sans-Serif" font-size="10.00" fill="#000000">vector</text>
</g>
<!-- Node0&#45;&gt;Node14 -->
<g id="edge18" class="edge">
<title>Node0&#45;&gt;Node14</title>
<path fill="none" stroke="#191970" d="M403.8792,-169.691C456.2662,-163.0034 551.1714,-149.5924 641.2189,-128.9071"/>
<polygon fill="#191970" stroke="#191970" points="642.0965,-132.2964 651.0405,-126.617 640.5069,-125.4793 642.0965,-132.2964"/>
</g>
<!-- Node1&#45;&gt;Node2 -->
<g id="edge2" class="edge">
<title>Node1&#45;&gt;Node2</title>
<path fill="none" stroke="#191970" d="M188.6911,-110.4179C163.2566,-101.2748 123.8378,-87.1046 95.5174,-76.924"/>
<polygon fill="#191970" stroke="#191970" points="96.5985,-73.5935 86.004,-73.5042 94.2305,-80.1808 96.5985,-73.5935"/>
</g>
<!-- Node4 -->
<g id="node5" class="node">
<title>Node4</title>
<polygon fill="#ffffff" stroke="#bfbfbf" points="231.7836,-55.5 231.7836,-73.5 276.1283,-73.5 276.1283,-55.5 231.7836,-55.5"/>
<text text-anchor="middle" x="253.956" y="-61.5" font-family="Helvetica,sans-Serif" font-size="10.00" fill="#000000">cstdlib</text>
</g>
<!-- Node1&#45;&gt;Node4 -->
<g id="edge4" class="edge">
<title>Node1&#45;&gt;Node4</title>
<path fill="none" stroke="#191970" d="M220.5612,-110.4179C226.1439,-102.7415 234.3038,-91.5217 241.16,-82.0945"/>
<polygon fill="#191970" stroke="#191970" points="244.1561,-83.9255 247.2073,-73.7795 238.4949,-79.8082 244.1561,-83.9255"/>
</g>
<!-- Node5 -->
<g id="node6" class="node">
<title>Node5</title>
<polygon fill="#ffffff" stroke="#bfbfbf" points="166.3944,-55.5 166.3944,-73.5 213.5175,-73.5 213.5175,-55.5 166.3944,-55.5"/>
<text text-anchor="middle" x="189.956" y="-61.5" font-family="Helvetica,sans-Serif" font-size="10.00" fill="#000000">iterator</text>
</g>
<!-- Node1&#45;&gt;Node5 -->
<g id="edge5" class="edge">
<title>Node1&#45;&gt;Node5</title>
<path fill="none" stroke="#191970" d="M209.9929,-110.4179C206.7468,-102.9789 202.0486,-92.2123 198.0174,-82.9742"/>
<polygon fill="#191970" stroke="#191970" points="201.2126,-81.545 194.0052,-73.7795 194.7968,-84.3447 201.2126,-81.545"/>
</g>
<!-- Node6 -->
<g id="node7" class="node">
<title>Node6</title>
<polygon fill="#ffffff" stroke="#bfbfbf" points="293.8993,-55.5 293.8993,-73.5 346.0126,-73.5 346.0126,-55.5 293.8993,-55.5"/>
<text text-anchor="middle" x="319.956" y="-61.5" font-family="Helvetica,sans-Serif" font-size="10.00" fill="#000000">memory</text>
</g>
<!-- Node1&#45;&gt;Node6 -->
<g id="edge6" class="edge">
<title>Node1&#45;&gt;Node6</title>
<path fill="none" stroke="#191970" d="M231.4597,-110.4179C248.3379,-101.6603 274.1047,-88.2907 293.4896,-78.2326"/>
<polygon fill="#191970" stroke="#191970" points="295.1619,-81.308 302.4262,-73.5956 291.9379,-75.0946 295.1619,-81.308"/>
</g>
<!-- Node3 -->
<g id="node4" class="node">
<title>Node3</title>
<polygon fill="#ffffff" stroke="#bfbfbf" points="41.5644,-.5 41.5644,-18.5 80.3476,-18.5 80.3476,-.5 41.5644,-.5"/>
<text text-anchor="middle" x="60.956" y="-6.5" font-family="Helvetica,sans-Serif" font-size="10.00" fill="#000000">utility</text>
</g>
<!-- Node2&#45;&gt;Node3 -->
<g id="edge3" class="edge">
<title>Node2&#45;&gt;Node3</title>
<path fill="none" stroke="#191970" d="M60.956,-55.4179C60.956,-48.2164 60.956,-37.8962 60.956,-28.8632"/>
<polygon fill="#191970" stroke="#191970" points="64.4561,-28.7794 60.956,-18.7795 57.4561,-28.7795 64.4561,-28.7794"/>
</g>
<!-- Node7&#45;&gt;Node2 -->
<g id="edge8" class="edge">
<title>Node7&#45;&gt;Node2</title>
<path fill="none" stroke="#191970" d="M62.6257,-110.4179C62.3638,-103.2164 61.9886,-92.8962 61.6601,-83.8632"/>
<polygon fill="#191970" stroke="#191970" points="65.1546,-83.6456 61.2934,-73.7795 58.1592,-83.9001 65.1546,-83.6456"/>
</g>
<!-- Node7&#45;&gt;Node8 -->
<g id="edge9" class="edge">
<title>Node7&#45;&gt;Node8</title>
<path fill="none" stroke="#191970" d="M74.6802,-110.4179C85.3047,-102.1876 101.1877,-89.8839 113.839,-80.0836"/>
<polygon fill="#191970" stroke="#191970" points="116.2149,-82.6704 121.977,-73.7795 111.9281,-77.1365 116.2149,-82.6704"/>
</g>
<!-- Node9&#45;&gt;Node6 -->
<g id="edge11" class="edge">
<title>Node9&#45;&gt;Node6</title>
<path fill="none" stroke="#191970" d="M319.956,-110.4179C319.956,-103.2164 319.956,-92.8962 319.956,-83.8632"/>
<polygon fill="#191970" stroke="#191970" points="323.4561,-83.7794 319.956,-73.7795 316.4561,-83.7795 323.4561,-83.7794"/>
</g>
</g>
</svg>
