<?xml version="1.0" encoding="UTF-8" standalone="no"?>
<!DOCTYPE svg PUBLIC "-//W3C//DTD SVG 1.1//EN"
 "http://www.w3.org/Graphics/SVG/1.1/DTD/svg11.dtd">
<!-- Generated by graphviz version 2.40.1 (20161225.0304)
 -->
<!-- Title: ppht/trig.hpp Pages: 1 -->
<svg width="372pt" height="82pt"
 viewBox="0.00 0.00 371.51 82.00" xmlns="http://www.w3.org/2000/svg" xmlns:xlink="http://www.w3.org/1999/xlink">
<g id="graph0" class="graph" transform="scale(1 1) rotate(0) translate(4 78)">
<title>ppht/trig.hpp</title>
<polygon fill="#ffffff" stroke="transparent" points="-4,4 -4,-78 367.5073,-78 367.5073,4 -4,4"/>
<!-- Node0 -->
<g id="node1" class="node">
<title>Node0</title>
<polygon fill="#bfbfbf" stroke="#000000" points="146.3179,-55.5 146.3179,-73.5 217.9136,-73.5 217.9136,-55.5 146.3179,-55.5"/>
<text text-anchor="middle" x="182.1157" y="-61.5" font-family="Helvetica,sans-Serif" font-size="10.00" fill="#000000">ppht/trig.hpp</text>
</g>
<!-- Node1 -->
<g id="node2" class="node">
<title>Node1</title>
<polygon fill="#ffffff" stroke="#bfbfbf" points="0,-.5 0,-18.5 48.2314,-18.5 48.2314,-.5 0,-.5"/>
<text text-anchor="middle" x="24.1157" y="-6.5" font-family="Helvetica,sans-Serif" font-size="10.00" fill="#000000">cassert</text>
</g>
<!-- Node0&#45;&gt;Node1 -->
<g id="edge1" class="edge">
<title>Node0&#45;&gt;Node1</title>
<path fill="none" stroke="#191970" d="M156.0252,-55.4179C129.2891,-46.111 87.5898,-31.5954 58.2463,-21.3809"/>
<polygon fill="#191970" stroke="#191970" points="59.0221,-17.945 48.4273,-17.9629 56.7208,-24.5559 59.0221,-17.945"/>
</g>
<!-- Node2 -->
<g id="node3" class="node">
<title>Node2</title>
<polygon fill="#ffffff" stroke="#bfbfbf" points="66.5,-.5 66.5,-18.5 109.7314,-18.5 109.7314,-.5 66.5,-.5"/>
<text text-anchor="middle" x="88.1157" y="-6.5" font-family="Helvetica,sans-Serif" font-size="10.00" fill="#000000">cmath</text>
</g>
<!-- Node0&#45;&gt;Node2 -->
<g id="edge2" class="edge">
<title>Node0&#45;&gt;Node2</title>
<path fill="none" stroke="#191970" d="M166.5935,-55.4179C151.8982,-46.8195 129.6046,-33.7754 112.5291,-23.7844"/>
<polygon fill="#191970" stroke="#191970" points="114.0597,-20.6249 103.661,-18.5956 110.5245,-26.6667 114.0597,-20.6249"/>
</g>
<!-- Node3 -->
<g id="node4" class="node">
<title>Node3</title>
<polygon fill="#ffffff" stroke="#bfbfbf" points="127.665,-.5 127.665,-18.5 172.5664,-18.5 172.5664,-.5 127.665,-.5"/>
<text text-anchor="middle" x="150.1157" y="-6.5" font-family="Helvetica,sans-Serif" font-size="10.00" fill="#000000">cstdint</text>
</g>
<!-- Node0&#45;&gt;Node3 -->
<g id="edge3" class="edge">
<title>Node0&#45;&gt;Node3</title>
<path fill="none" stroke="#191970" d="M176.8316,-55.4179C172.4574,-47.8998 166.1058,-36.9829 160.6931,-27.6799"/>
<polygon fill="#191970" stroke="#191970" points="163.5689,-25.6628 155.5147,-18.7795 157.5184,-29.1831 163.5689,-25.6628"/>
</g>
<!-- Node4 -->
<g id="node5" class="node">
<title>Node4</title>
<polygon fill="#ffffff" stroke="#bfbfbf" points="190.8301,-.5 190.8301,-18.5 237.4014,-18.5 237.4014,-.5 190.8301,-.5"/>
<text text-anchor="middle" x="214.1157" y="-6.5" font-family="Helvetica,sans-Serif" font-size="10.00" fill="#000000">math.h</text>
</g>
<!-- Node0&#45;&gt;Node4 -->
<g id="edge4" class="edge">
<title>Node0&#45;&gt;Node4</title>
<path fill="none" stroke="#191970" d="M187.3999,-55.4179C191.774,-47.8998 198.1257,-36.9829 203.5384,-27.6799"/>
<polygon fill="#191970" stroke="#191970" points="206.713,-29.1831 208.7168,-18.7795 200.6626,-25.6628 206.713,-29.1831"/>
</g>
<!-- Node5 -->
<g id="node6" class="node">
<title>Node5</title>
<polygon fill="#ffffff" stroke="#bfbfbf" points="255.0591,-.5 255.0591,-18.5 307.1724,-18.5 307.1724,-.5 255.0591,-.5"/>
<text text-anchor="middle" x="281.1157" y="-6.5" font-family="Helvetica,sans-Serif" font-size="10.00" fill="#000000">memory</text>
</g>
<!-- Node0&#45;&gt;Node5 -->
<g id="edge5" class="edge">
<title>Node0&#45;&gt;Node5</title>
<path fill="none" stroke="#191970" d="M198.4636,-55.4179C214.0839,-46.7399 237.8555,-33.5334 255.9019,-23.5077"/>
<polygon fill="#191970" stroke="#191970" points="257.7018,-26.5117 264.7436,-18.5956 254.3022,-20.3925 257.7018,-26.5117"/>
</g>
<!-- Node6 -->
<g id="node7" class="node">
<title>Node6</title>
<polygon fill="#ffffff" stroke="#bfbfbf" points="324.7241,-.5 324.7241,-18.5 363.5073,-18.5 363.5073,-.5 324.7241,-.5"/>
<text text-anchor="middle" x="344.1157" y="-6.5" font-family="Helvetica,sans-Serif" font-size="10.00" fill="#000000">utility</text>
</g>
<!-- Node0&#45;&gt;Node6 -->
<g id="edge6" class="edge">
<title>Node0&#45;&gt;Node6</title>
<path fill="none" stroke="#191970" d="M208.8667,-55.4179C238.095,-45.4947 284.7644,-29.6501 314.9231,-19.4111"/>
<polygon fill="#191970" stroke="#191970" points="316.1249,-22.6993 324.4689,-16.1702 313.8745,-16.0709 316.1249,-22.6993"/>
</g>
</g>
</svg>
