<?xml version="1.0" encoding="UTF-8" standalone="no"?>
<!DOCTYPE svg PUBLIC "-//W3C//DTD SVG 1.1//EN"
 "http://www.w3.org/Graphics/SVG/1.1/DTD/svg11.dtd">
<!-- Generated by graphviz version 2.40.1 (20161225.0304)
 -->
<!-- Title: ppht/types.hpp Pages: 1 -->
<svg width="321pt" height="192pt"
 viewBox="0.00 0.00 320.96 192.00" xmlns="http://www.w3.org/2000/svg" xmlns:xlink="http://www.w3.org/1999/xlink">
<g id="graph0" class="graph" transform="scale(1 1) rotate(0) translate(4 188)">
<title>ppht/types.hpp</title>
<polygon fill="#ffffff" stroke="transparent" points="-4,4 -4,-188 316.9575,-188 316.9575,4 -4,4"/>
<!-- Node2 -->
<g id="node1" class="node">
<title>Node2</title>
<polygon fill="#bfbfbf" stroke="#000000" points="109.0098,-165.5 109.0098,-183.5 190.6152,-183.5 190.6152,-165.5 109.0098,-165.5"/>
<text text-anchor="middle" x="149.8125" y="-171.5" font-family="Helvetica,sans-Serif" font-size="10.00" fill="#000000">ppht/types.hpp</text>
</g>
<!-- Node3 -->
<g id="node2" class="node">
<title>Node3</title>
<g id="a_node2"><a xlink:href="accumulator_8hpp.html" target="_top" xlink:title="ppht/accumulator.hpp">
<polygon fill="#ffffff" stroke="#000000" points="0,-55.5 0,-73.5 111.625,-73.5 111.625,-55.5 0,-55.5"/>
<text text-anchor="middle" x="55.8125" y="-61.5" font-family="Helvetica,sans-Serif" font-size="10.00" fill="#000000">ppht/accumulator.hpp</text>
</a>
</g>
</g>
<!-- Node2&#45;&gt;Node3 -->
<g id="edge1" class="edge">
<title>Node2&#45;&gt;Node3</title>
<path fill="none" stroke="#191970" d="M101.0543,-161.6781C84.5084,-154.7842 67.7186,-144.4124 57.8125,-129 46.9091,-112.0359 50.3498,-87.0398 53.3537,-73.6934"/>
<polygon fill="#191970" stroke="#191970" points="100.123,-165.0683 110.7142,-165.347 102.6085,-158.5244 100.123,-165.0683"/>
</g>
<!-- Node5 -->
<g id="node4" class="node">
<title>Node5</title>
<g id="a_node4"><a xlink:href="channel_8hpp.html" target="_top" xlink:title="ppht/channel.hpp">
<polygon fill="#ffffff" stroke="#000000" points="66.4458,-110.5 66.4458,-128.5 159.1792,-128.5 159.1792,-110.5 66.4458,-110.5"/>
<text text-anchor="middle" x="112.8125" y="-116.5" font-family="Helvetica,sans-Serif" font-size="10.00" fill="#000000">ppht/channel.hpp</text>
</a>
</g>
</g>
<!-- Node2&#45;&gt;Node5 -->
<g id="edge3" class="edge">
<title>Node2&#45;&gt;Node5</title>
<path fill="none" stroke="#191970" d="M137.9424,-156.8553C131.6616,-147.519 124.2059,-136.4361 119.055,-128.7795"/>
<polygon fill="#191970" stroke="#191970" points="135.2169,-159.0743 143.7027,-165.4179 141.0249,-155.167 135.2169,-159.0743"/>
</g>
<!-- Node6 -->
<g id="node5" class="node">
<title>Node6</title>
<g id="a_node5"><a xlink:href="state_8hpp.html" target="_top" xlink:title="ppht/state.hpp">
<polygon fill="#ffffff" stroke="#000000" points="147.1206,-55.5 147.1206,-73.5 226.5044,-73.5 226.5044,-55.5 147.1206,-55.5"/>
<text text-anchor="middle" x="186.8125" y="-61.5" font-family="Helvetica,sans-Serif" font-size="10.00" fill="#000000">ppht/state.hpp</text>
</a>
</g>
</g>
<!-- Node2&#45;&gt;Node6 -->
<g id="edge9" class="edge">
<title>Node2&#45;&gt;Node6</title>
<path fill="none" stroke="#191970" d="M157.6321,-155.8461C160.9446,-147.6705 164.7402,-137.9233 167.8125,-129 174.5011,-109.5736 180.9733,-86.3722 184.3653,-73.7684"/>
<polygon fill="#191970" stroke="#191970" points="154.3594,-154.6017 153.7854,-165.181 160.8314,-157.2687 154.3594,-154.6017"/>
</g>
<!-- Node7 -->
<g id="node6" class="node">
<title>Node7</title>
<g id="a_node6"><a xlink:href="point__set_8hpp.html" target="_top" xlink:title="ppht/point_set.hpp">
<polygon fill="#ffffff" stroke="#000000" points="214.6675,-110.5 214.6675,-128.5 312.9575,-128.5 312.9575,-110.5 214.6675,-110.5"/>
<text text-anchor="middle" x="263.8125" y="-116.5" font-family="Helvetica,sans-Serif" font-size="10.00" fill="#000000">ppht/point_set.hpp</text>
</a>
</g>
</g>
<!-- Node2&#45;&gt;Node7 -->
<g id="edge6" class="edge">
<title>Node2&#45;&gt;Node7</title>
<path fill="none" stroke="#191970" d="M177.6776,-161.0563C198.5804,-150.9716 226.6328,-137.4376 244.9598,-128.5956"/>
<polygon fill="#191970" stroke="#191970" points="176.123,-157.9202 168.6373,-165.4179 179.1647,-164.2248 176.123,-157.9202"/>
</g>
<!-- Node4 -->
<g id="node3" class="node">
<title>Node4</title>
<g id="a_node3"><a xlink:href="ppht_8hpp.html" target="_top" xlink:title="ppht.hpp">
<polygon fill="#ffffff" stroke="#000000" points="159.3496,-.5 159.3496,-18.5 214.2754,-18.5 214.2754,-.5 159.3496,-.5"/>
<text text-anchor="middle" x="186.8125" y="-6.5" font-family="Helvetica,sans-Serif" font-size="10.00" fill="#000000">ppht.hpp</text>
</a>
</g>
</g>
<!-- Node3&#45;&gt;Node4 -->
<g id="edge2" class="edge">
<title>Node3&#45;&gt;Node4</title>
<path fill="none" stroke="#191970" d="M86.8637,-51.4633C110.9795,-41.3383 143.8039,-27.5571 165.1484,-18.5956"/>
<polygon fill="#191970" stroke="#191970" points="85.3099,-48.3196 77.4445,-55.4179 88.0197,-54.7738 85.3099,-48.3196"/>
</g>
<!-- Node5&#45;&gt;Node6 -->
<g id="edge4" class="edge">
<title>Node5&#45;&gt;Node6</title>
<path fill="none" stroke="#191970" d="M133.1396,-104.392C146.419,-94.5222 163.3214,-81.9596 174.5748,-73.5956"/>
<polygon fill="#191970" stroke="#191970" points="130.9702,-101.6435 125.0321,-110.4179 135.1459,-107.2617 130.9702,-101.6435"/>
</g>
<!-- Node6&#45;&gt;Node4 -->
<g id="edge5" class="edge">
<title>Node6&#45;&gt;Node4</title>
<path fill="none" stroke="#191970" d="M186.8125,-45.383C186.8125,-36.3738 186.8125,-26.0373 186.8125,-18.7795"/>
<polygon fill="#191970" stroke="#191970" points="183.3126,-45.4178 186.8125,-55.4179 190.3126,-45.4179 183.3126,-45.4178"/>
</g>
<!-- Node7&#45;&gt;Node4 -->
<g id="edge8" class="edge">
<title>Node7&#45;&gt;Node4</title>
<path fill="none" stroke="#191970" d="M257.9035,-100.4945C253.1833,-87.0482 245.7188,-68.9945 235.8125,-55 225.6175,-40.5976 210.2546,-27.2576 199.4549,-18.7957"/>
<polygon fill="#191970" stroke="#191970" points="254.6268,-101.7334 261.0949,-110.1248 261.2715,-99.5314 254.6268,-101.7334"/>
</g>
<!-- Node7&#45;&gt;Node6 -->
<g id="edge7" class="edge">
<title>Node7&#45;&gt;Node6</title>
<path fill="none" stroke="#191970" d="M242.6613,-104.392C228.8436,-94.5222 211.256,-81.9596 199.5464,-73.5956"/>
<polygon fill="#191970" stroke="#191970" points="240.9258,-107.4535 251.0975,-110.4179 244.9945,-101.7574 240.9258,-107.4535"/>
</g>
</g>
</svg>
